<svg xmlns="http://www.w3.org/2000/svg" width="3163" height="2261" viewBox="0 0 3163 2261">
  <defs>
    <style>
      .cls-1 {
        fill: #fff;
        fill-rule: evenodd;
      }
    </style>
  </defs>
  <path id="b_1" data-name="b 1" class="cls-1" d="M910.3,175.3v-4.339h-4.339c-1.736,3.483-1.457,3.876-6.51,4.339,1.576,12.1,14.161,32.267,11.934,42.311,3.63-.231,2.6-2.335,4.34,1.085,5.858,7.821,7.032,22.2,10.85,31.461l-3.255,1.085q0.542,1.627,1.085,3.255a13.76,13.76,0,0,1,4.34,1.085c-1.179,5.354,2.891,12.355,4.339,18.443q-0.541,5.965-1.085,11.934c1.027,5.793,3.724,12.383,4.34,19.528,3.681,1.026,3.375.417,4.34,4.339-2.954,3.763-3.708,9.088-6.51,13.019-10.226,14.347-27,26.356-41.228,36.886L882.09,370.583c-4.2,2.2-2.687-2.066-6.51-1.085-2.431.623-5.642,3.714-10.849,4.339-1.148-2.764-2.353-4.686-3.255-7.594l4.339-4.339c-2.1-8.145,1.451-19.519-1.084-30.377-7.92-33.919-12.259-71.689-32.549-93.3-1.9.684-1.054,0.209-2.17,1.085-3.342,1.125-3.166,1.048-4.34,4.339-2.8,4.107.513,10.453-1.085,13.019a12.583,12.583,0,0,1-3.254,2.17q1.085,3.8,2.17,7.594h4.339c-0.039,6.013,1.107,8.65,2.17,13.018-2.435.637-2.881,0.812-4.34,2.17,1.043,1.538,1.06,3.551,1.085,6.509h4.34c0.3,18.254,3.588,40.823-1.085,57.5-8.934,31.884-31.049,53.028-61.842,62.924-7.458,2.4-13.326,1.4-21.7,3.254-8.529,1.891-23.622,2.2-32.548,0-10.6-2.613-22.513-4.565-32.549-8.679a217.224,217.224,0,0,1-47.737-27.122c-10.629-7.977-18.2-20.718-29.294-28.207v3.255c4.659,7.307,2.068,19.663,4.34,29.292,6.094,25.826,4.648,54.5,10.849,81.366,5.45,23.618,5.35,51.2,10.85,74.857q0.542,8.677,1.085,17.358c3.7,16.051,3.876,35.73,7.594,52.075q0.543,11.389,1.085,22.782c9.639,44.434,6.348,104.708-4.34,144.29-5.618,20.81-11.506,68.529-26.038,78.111-8.107,5.788-21.67,6.1-31.464,9.764-22.214,8.3-44.63,15.461-66.182,24.953a761.735,761.735,0,0,0-93.3,48.82c-16.9,10.5-33.674,22.636-52.078,31.461,1.108,0.873.3,0.385,2.17,1.085,4.64,4.014,27.981,1.085,37.973,1.085h65.1c11.2,0,25.331.946,34.719-1.085,7.251-1.569,18.483,2.312,23.868-1.085,10.118-3.438,15.687-14.84,23.869-20.613,16.949-11.957,37.664-24.459,59.673-30.376-0.086-4.4-1.775-2.589,1.084-4.34,7.7-5.921,21-5.76,31.464-8.679,21.569-6.018,76.447-18.089,100.9-5.424V893.5c97.938,8.667,163.319,72.341,196.376,146.463,17.144,38.44,28.295,78.58,48.822,112.82-0.723,1.09-1.446,2.17-2.169,3.26,1.115,2,5.362,1.49,6.509,3.25,0.723,3.26,1.447,6.51,2.17,9.77,2.376,4.53,7.566,9.86,9.766,11.93-0.26.83-2.19,2.57-1.09,4.34,2.55,4.08,10.19,8.89,11.94,13.02-0.36,2.17-.73,4.34-1.09,6.51,2.32,6.14,10.37,12.07,14.11,17.36,11.7,16.55,23.75,31.7,35.8,47.73l16.28,16.28c5.62,7.45,25.73,31.87,34.71,33.63,1.17-.82,1.03-0.66,3.26-1.09,15.83,25.38,47.23,41.5,71.6,58.59,63.18,44.28,123.96,72.28,206.14,98.72,33.92,10.91,71.34,11.31,108.5,19.53,12.81,2.83,32.58-2.46,39.06,6.51,5.76,7.6,1.08,27.56,1.08,39.05v108.49c3.18,15,3.24,52.28,0,67.26v18.45c-3.87,17.77-4.68,34.83-10.85,49.9-26.4,64.56-83,97.21-156.23,115-14.14,3.43-30.37,2.17-46.65,2.17-42.84,0-81.77-4.26-122.6-4.34v-4.34a23.283,23.283,0,0,0-7.6-1.08c-1.84-.6-5.8,1.33-6.51,2.17,5.71,3.87,8.55,11.44,16.28,13.01,1.11-.87.3-0.38,2.17-1.08,2.79,7.8,13.92,13.25,18.44,19.53,2.27-1.22,1.99-1.56,5.43-2.17,8.1,11.8,23.78,16.84,37.97,22.78,56.32,23.59,132.58,20.3,186.61-3.25a233.95,233.95,0,0,0,41.23-23.87c6.19-4.45,10.79-12.38,18.44-15.19,1.62,1.81.79,1.1,2.17,1.08,6.09-4.7,10.97-11.79,18.45-15.18v1.08c7.46,5.41,4.34,41.58,4.34,55.33-0.02,52.47-.41,111.39,0,163.82,0.13,17.57,4.91,57.62-6.51,61.84-8.92,6.89-50.83,1.27-67.27,1.08a17.024,17.024,0,0,1-1.08-5.42,213.068,213.068,0,0,1-44.49-4.34c-2.2-.45-12.06,5.09-16.27,3.25-25.41-11.13-61.72-10.38-90.05-18.44-49.24-14.01-97.66-26.03-141.04-44.48-10.22-4.35-19.27-6.44-29.3-10.85-9.2-4.04-18.35-10.65-27.12-15.19-5.86-3.03-16.52-4.01-19.53-9.76,0.81-1.17.65-1.03,1.08-3.26-12.15-3.32-22.05-13.99-31.46-20.61-23-16.19-45.04-34.11-61.84-56.41-8.15-10.82-22.621-20.81-27.125-34.72-3.044.44-3.085,1.33-5.425,0-6.262-6.93-9.011-16.87-14.1-24.95-13.025-20.66-25.272-41.17-35.8-65.1-7.662-17.41-17.458-36.07-24.954-54.24-9.6-23.26-13.578-46.53-21.7-71.6-15.872-49.01-24.72-104.53-28.209-164.91-11.556.4-23.219,3.07-33.634,5.43-12.176,2.76-25.338.76-36.888,3.25H769.255c-19.173.01-38.462,0.36-54.247-3.25-16.043-3.67-29.592-2.32-44.483-6.51-43.466-12.25-85.853-24.52-120.429-45.57-5.415-3.29-11.012-4.27-16.275-7.59-10.734-6.76-20.941-15.76-31.463-22.78-4.967-3.31-11.564-5.17-15.189-9.77,1.761-1.46,1.216-.69,2.169-3.25-11.621-7.72-19.548-20.02-30.378-28.21-25.7-19.43-44.869-48.79-62.927-75.94-8.189-12.31-19.182-23.68-26.039-36.89-31.812.57-57.939-13.99-80.286-23.86-59.6-26.33-105.662-66.16-141.043-112.83-4.575.09-8.55-9.38-11.935-14.1-5.366-7.49-12.392-14.94-17.359-22.79-5.46-8.62-8.722-17.21-14.1-26.03C61.5,1070.21,38.216,978.5,38,863.12h4.34l1.085-20.613c-2.252-.4-2.088-0.262-3.255-1.084-0.872-1.108-.385-0.3-1.085-2.17,4.2-7.249,1.119-19.244,3.255-28.207l11.934-67.263c16.348-57.442,32.118-110.345,54.248-160.563,20.649-46.859,49.281-89.827,78.116-129.1,9.935-13.533,22.332-25.541,32.548-39.056l75.947-77.027c1.916,1.043,1.823,1.364,4.34,2.17,3.364-4.994,9.6-10.25,17.359-10.849-0.587,7.226-5.224,9.881-7.595,15.188a356.049,356.049,0,0,1-22.784,42.311c-18.195,29.675-31.389,60.894-45.568,94.385-6.69,15.8-15.939,34.17-18.444,53.159h-5.425q-4.881,17.9-9.764,35.8c2.715,1.58,2.339.636,3.255,4.34-4.862,5.371-6.336,18.7-6.51,28.207h-4.34q-0.542,3.254-1.085,6.509c0.556,1.845,3.489-.237,3.255,3.255-0.037.548-3,4.565-3.255,5.424-3.307,11.358-3.631,20.419-3.255,31.462-2.252.4-2.087,0.263-3.254,1.085-0.768,1.2-4.421,21.666-3.255,23.867,1.224,2.311,4.945,1.359,3.255,9.764-4.361,21.687-.332,48.295,0,70.518h-3.255q1.085,10.848,2.17,21.7h4.339c-0.193,7.682.194,14.4,2.17,19.528-4.247,1.162-4.164,1.238-4.339,6.51,2.031,3.364,1.086,9.976,3.254,13.018,1.23-11.162,3.166-21.749,3.255-34.716H204l1.085-1.085c0.23-20.849,10.4-52.744,16.274-70.517,13.853-41.894,23.536-80.158,40.143-118.253,6.145-14.095,13.095-27.695,19.529-42.31,2.028-4.606,5.475-6.961,6.51-13.019-4.041-1.855-2.244-.277-2.17-4.339,5.564-6.095,7.463-14.364,11.935-21.7,10.21-16.747,18.783-34.83,29.293-52.075,15.6-25.6,28.587-53.12,44.483-79.2,5.746-9.425,12.7-16.017,17.359-27.122,4.4,0.086,2.589,1.774,4.34-1.085,2.781-2.892,5.471-7.493,7.595-10.849-1.984-1.7-1.514-.957-2.17-4.34,5.711-5.837,8.506-13.467,13.019-20.612,5.464-8.651,12.97-17.393,18.444-26.038,3.688-5.822,5.665-15.4,13.02-17.358,1.108,0.873.3,0.385,2.17,1.085,0.61-7.556,4.416-7.449,6.509-13.018-2.758-1.58-1.224.235-2.17-3.255,8.875-7.047,14.021-19.906,20.614-29.292,2.155-3.067,20.659-29.731,21.7-30.377,2.4-1.487,5.187,2.708,7.6-1.085,0.478-.752-2.156-2.273-1.085-4.339,0.771-1.487,3.016-1.11,4.34-2.17l6.51-8.679c0.907-.46,2.152,2.11,4.339,1.085,2.018-.946,3.9-4.105,6.51-5.425-0.951-2.443-1.93-2.8-1.085-4.339,3.643-4.674,18.9-15.39,24.954-17.358,1.459,2.5,1.323,1.977,2.17,2.169,7.474-2.254,14.3-8.242,20.614-11.933,13-7.6,45.029-19.467,62.927-20.613v-5.424L826.757,70.07c26.727-8.1,65.828-21.692,96.561-8.679C951.771,73.438,963.1,100.336,978.65,125.4c7.138,11.506,35.02,48.548,31.46,59.668,4.25,2.832,5.56,6.883,7.6,11.934,3.15-.063,1.51-1.046,3.25,0,3.54,4.725,3.7,9.688,8.68,13.019-4.06,7.843,5.93,19.476,9.77,27.122,4.12-.268,3.75-2.2,5.42,1.085,7.71,8.427,10.19,21.437,16.28,31.461,6.66,10.975,20.51,30.061,22.78,43.4-4.57,1.961-4.52,13.27-4.34,19.528,2.44,0.636,2.88.811,4.34,2.169-4.63,6.265-5.98,23.788-14.1,26.038-1.11-.873-0.3-0.385-2.17-1.085-2.34,13.582-20.36,24.178-31.47,32.546q-7.59,7.595-15.19,15.189c-17.89,13.483-32.722,29.325-48.82,44.48,0.339,59.37-25.477,72.363-68.351,87.876-19.441,7.034-51.912,9.849-69.437-1.085-14.472-9.03-24.538-29.034-32.548-44.481-3.676-7.086-5.447-14.32-10.85-19.527,1.033-1.712,3.942-3.253,2.17-4.34-1.362-4.105-4.068-4.707-3.255-7.594,5.326-10.381,23.3-8.472,34.718-13.019,11.858-4.72,58.246-25.945,62.927-34.716l4.34,2.17c1.892-8.069,21.473-17.839,28.209-22.783,18.658-13.692,38.125-32.492,52.077-50.99,4.387-5.815,11.1-9.907,14.105-17.358,6.524-16.18-6.676-37.294-14.105-44.48,0.919-3.37,2.117-2.938,1.085-5.424-2.235-8.785-9.769-15.715-14.1-22.783q-3.8-8.677-7.6-17.358c-7.642-12.568-16.148-25.6-23.868-37.971C923.248,191.022,920.61,176.131,910.3,175.3ZM2947.83,724.255c0.02,12.163,6.81,39.493,10.85,49.9h3.26c0.06,4.768,1.43,12.487,1.08,13.018a12.509,12.509,0,0,1-3.25,2.17q1.62,9.764,3.25,19.528h1.09v-5.424c4.46-6.679,4.97-24.039,3.25-32.547h4.34c0.35-3.966,1.95-8.26,1.08-9.764-1.68-1.622-1.99-.843-3.25-3.255,2.89-4.5.8-11.013,2.17-17.358,5.34-24.685-.87-54.821-1.08-79.2,3.52-.9,1.65.531,3.25-2.17-2.31-3.144-2.29-8.488-2.17-14.1-2.25-.4-2.09-0.262-3.25-1.084-5.49-9.363-3.41-31.533-6.51-43.4-7.97-30.417-12.52-61.512-23.87-88.96-17.34-41.906-35.78-87.269-58.59-124.762-7.9-12.977-14.5-26.74-22.78-40.141-3.07-4.961-7.46-8.03-8.68-15.188h5.42c8.5,12.889,29.69,27.375,42.31,36.886q10.86,11.389,21.7,22.782c21.15,21.148,42.9,42.96,60.76,67.263a822.951,822.951,0,0,1,92.22,159.478c13.83,31.666,22.56,67.277,33.63,100.895,8.36,25.382,9.75,53.156,16.28,80.281,2.63,10.944.9,22.46,3.25,32.547v17.358c3.09,14.257,3.35,52.01,0,66.178v16.273c-3.07,13.462-1.87,28.532-5.42,42.31-10.91,42.3-18.83,82.482-34.72,119.342-8.94,20.74-18.61,43.11-30.38,61.83-2.18,3.48-5.69,9.86-8.68,13.02,0,0-4.68-.19-5.42,2.17-0.7,2.2,1.65,3.24,2.17,5.43-6.12,3.99-11.82,11.79-15.19,18.44h-3.26c-2.09,13.74-34.91,45.11-45.57,53.16-8.1,6.12-14.49,15.6-22.78,21.7-38.58,28.34-102.71,67.99-162.74,72.68-2.39,8.57-8.76,15.92-13.02,22.79-11.32,18.24-22.25,34.28-34.72,50.99-4.88,6.53-12.47,11.95-17.36,18.44-50.21,66.64-124.82,103.93-213.73,132.36-27.01,8.63-56.96,7.65-86.8,14.1h-26.04c-27.76,4.17-58.44-4.38-86.79-4.34v-4.34a15.394,15.394,0,0,1-5.43-1.09v11.94c-3.68,6.35-.3,16.82-2.17,24.95q-4.875,33.63-9.76,67.26c-14.62,56.18-27.44,109.38-48.83,158.4-58.1,133.19-130.12,216.59-263.64,274.47-36.67,15.9-77.58,25.37-118.26,36.89-14.45,4.09-27.33,3.75-42.31,7.59-29.59,7.59-63.26,9.02-94.39,16.28q-16.275,1.08-32.55,2.17c-15.45,3.54-59.16,7.26-74.86,4.34-7.64-13.59-.03-38.92-3.26-57.5V1936.07c0-14.4-1.32-31.9,1.09-44.48,2.43-.64,2.88-0.81,4.34-2.17,10.32,2.35,12.61,9.94,19.53,15.19,13.05,9.89,26.1,20.57,40.14,29.29,55.21,34.29,154.05,41.56,216.99,8.68,10.58-5.53,23.46-10.43,30.38-19.53,1.99,1.4,1.86,2.14,4.34,3.26,3.38-5.18,27.27-27.88,32.55-30.38v-1.08c-13.1,1.6-29.85,2.51-43.4,5.42-14.27,3.06-30.14-.67-43.4,2.17h-23.87c-24.67,0-49.77.47-69.43-4.34-16.86-4.12-31.01-4.9-45.57-10.85-58.33-23.84-102.64-64.79-120.43-129.1-6.79-24.54-3.03-59.56-3.26-88.96-0.2-26.04-1.08-55.79-1.08-83.54v-35.8c2.97-13.81,2.12-34.21,2.17-48.82a19.462,19.462,0,0,0,4.34-3.25c17.25,0.22,29.51-3.13,43.4-4.34v3.25h5.42c0.36-.36.73-0.72,1.09-1.08v-3.26c8.64,0.24,15.21-2.79,20.61-3.25,3.76-.32,1.33,3.99,5.43,3.25,1.7-.3,2.08-3.77,3.25-4.34h8.68c9.44-2.41,21.15-4.96,30.38-7.59,55.47-15.8,107.9-28.52,151.89-55.33,17.84-10.87,40.18-17.9,54.25-32.55,3.37,0.92,2.94,2.12,5.42,1.09,8.19-2.65,14.2-9.59,20.62-14.1,17.72-12.46,33.91-25.14,50.99-37.98l16.27-16.27c22.62-17.09,43.72-40.21,60.76-62.92,4.28-5.71,10.95-10.5,15.19-16.28,25.42-34.58,52.48-71.68,70.52-112.82,13.85-31.58,23.25-67.11,39.06-97.64,11.03-21.31,23.04-41.234,36.89-59.672,7.44-9.915,22.75-17.043,28.21-28.207a12.425,12.425,0,0,1-2.17-3.254c9.42-2.911,18.02-11.337,26.04-16.274a283.276,283.276,0,0,1,55.33-26.037c77.74-26.169,173.18-2.851,225.67,29.292,9.22,5.646,18.48,9.112,27.12,15.188,4.61,3.238,8.56,8.638,13.02,11.934,4.03,2.983,9.28,3.1,10.85,8.679,0.87,1.963,18.45,1.316,24.95,1.085,5.13,3.212,19.76,1.085,27.13,1.085,20.28,0,57.64,3.669,71.6-3.255,4.27-2.113,8.41,2.887,11.94,1.085-8.62-2.084-14.05-8.845-20.61-13.019q-25.11-15.955-49.91-31.461c-45.28-28.265-101.11-55.769-159.49-69.433-25.26-55.837-44.96-149.573-27.12-227.826,3.49-15.348,2.21-31.406,5.42-45.565q0.54-9.221,1.09-18.443c4.77-20.81,3.98-45.4,8.68-66.178q1.08-14.644,2.17-29.292c9.09-40.052,4.87-87.622,18.44-123.676h-2.17c-0.36-.362-0.72-0.724-1.09-1.085-2.06,7.435-8.37,8.841-10.84,15.188,1.8,1.62,1.1.786,1.08,2.17-6.06,8.478-17.43,13.483-26.04,19.528-26.61,18.685-78.17,46.625-128.02,30.377-32.15-10.479-59-38.019-61.84-77.027,6.19-1.876,4.78-10.626,4.34-18.443-2.21-3.465,1.1-10.942-1.09-15.189-1.08-.361-2.17-0.723-3.25-1.085-1.46-4.114,2.04-13.5,2.17-19.527,2.25-.4,2.08-0.263,3.25-1.085,2.43-3.639,6.34-21.822,6.51-27.122a17.034,17.034,0,0,0-5.42-1.085v-4.34c-2.76-1.488-3.81-2.079-8.68-2.17-1.2,2.755-2.46,8.2-4.34,10.849-2.01,1.568-2.92.775-4.34,3.255-3.1,3.894-5.27,10.93-6.51,16.273,3.11,1.215,1.99.189,3.25,3.255-8.96,9.662-12.94,32.315-16.27,46.65-5.22,22.418,8.15,40.832,1.08,56.414-8.21-2.633-8-5.443-16.27-3.255-13.7-19.294-48.23-29.036-57.5-52.074-4.78-11.878.72-31.438,3.25-41.226,4.57-17.654,6.1-33.065,11.93-48.82,5.96-16.075,14.6-33.855,17.36-52.074h5.43c-0.22-4.52-.71-5.592-3.26-7.594-2.04-1.5-7.21-3-11.93-2.17,1.76,6.779-13.33,24.931-17.36,31.462-17.12,27.774-31.48,56.582-46.65,85.7-5,9.583-13.29,24.269-7.6,37.971,8.07,19.4,26.4,36.8,42.32,48.82,7.27,5.495,13.22,14.052,20.61,19.528,19.68,14.594,39.62,29.439,60.76,42.311,13.35,8.129,30.99,13.6,46.65,18.443,11.24,3.477,22.07.93,23.87,14.1-3.21,4.21-3.98,10.3-6.51,15.188-11.42,22.04-21.42,50.359-46.65,58.584-35.49,11.566-83.57-6.1-104.16-20.613-6.26-4.412-10.89-14.036-15.19-20.612-6.56-10.043-14.08-31.6-7.59-47.735-6.12-1.5-5.54-7.616-9.77-10.849-11.11-8.51-20.6-18.9-31.46-27.122-18.77-14.209-58.31-47.7-67.27-69.433-7.25-17.6-1.48-42,5.43-55.329,22.32-43.071,47.55-86.03,72.69-126.931,20.42-33.234,40.22-90.261,78.11-104.149,25.36-9.293,59.1-1.324,81.38,5.424q15.72,3.254,31.46,6.509c37.33,11.367,78.06,19.079,115,30.377,51.68,15.8,104.5,24.157,145.39,49.9,63.95,40.277,100.7,106.327,141.04,170.327,19.31,30.632,39.44,62.141,58.59,93.3,11.77,19.148,19.74,39.3,31.46,58.584,12.11,19.912,25.14,42.234,34.72,64.008,10.86,24.688,19.65,48.415,30.38,73.772,14.45,34.15,29.73,73.207,39.06,111.743h-3.26ZM953.7,836h4.34v-2.17c-6.966-10.736-1.8-43.91-1.085-57.5h-4.34c4.89-115.866,44.516-207.955,85.709-288.579,3.09,0.347,2.25,1.146,4.34,0,5.38-5.733,7.62-13.746,11.94-20.613,6.79-10.806,14.2-21.885,21.7-32.546,14.25-20.282,34.08-37.185,47.73-57.5-1.08-1.085-2.17-2.17-3.25-3.255q15.735-15.729,31.46-31.461c23.69-17.934,44.92-39.168,69.44-56.414,55.59-39.109,118.84-68.357,189.86-92.216,27.9-9.369,59-11.157,88.97-18.443l39.06-3.254c19.56-4.267,69.13-5.781,88.96-1.085l23.87,1.085,57.51,8.679c58.85,15.262,112.7,30.685,158.4,58.584,9.34,5.7,18.98,8.454,28.21,14.1,24.64,15.086,48.6,31.822,71.6,48.82,10.91,8.063,19.67,20.112,30.38,28.207a185.887,185.887,0,0,1,35.8,35.8l13.02,11.934c12.07,15.946,26.46,30.344,37.98,46.65,6.66,9.426,13.3,18.847,19.53,28.207,1.89,2.85,5.51,7.566,3.25,10.849l5.43,3.254c7.79,10.189,11.69,22.571,18.44,33.632,23.31,38.2,38.65,79.665,54.25,126.931,8.22,24.923,13.59,53.282,20.61,81.367,4.21,16.813.47,33.14,4.34,50.989,2.77,12.774,4.13,41.355,1.09,54.244v23.868c-2.92,12.824-2.4,29.078-5.43,41.225-4.19,16.813-3.08,31.789-7.59,47.735-16.86,59.556-35.41,113.232-59.68,163.822-4.39-.09-2.58-1.78-4.34,1.08-5.64,7.35-7.42,16.6-14.1,22.78,1.24,3.06,2.17,2.73,2.17,4.34-13.31,27.63-34.23,52.05-52.08,75.94-5.19,6.96-13.24,12.65-18.44,19.53-16.94,22.4-38.31,42.77-60.76,59.67-15.72,11.84-30.31,26.49-46.65,37.97-42.7,30.01-90.51,52.52-142.13,73.77-27.15,11.18-55.72,14.38-85.71,22.79-52.88,14.82-160.02,22.96-220.24,8.68-14.55-3.45-27.29-1.79-41.23-5.43-17.11-4.47-35.99-6.26-53.17-11.93-24.08-7.96-47.59-17.54-69.43-27.12-44.83-19.66-83.22-41.05-120.43-67.27-13.03-9.17-29.36-18.05-35.8-30.37-1.73,2.44-1.78,2.27-3.26,2.17l-58.59-58.59c1.09-1.08,2.17-2.17,3.26-3.25-12.99-9.47-23.1-27-32.55-40.14-10.48-14.57-22.82-29.1-32.55-44.48-16.4-25.95-29.66-53.95-43.4-82.45-4.39.08-2.58,1.77-4.34-1.09-8.2-9.48-14.413-38.27-19.525-52.074C969.49,950.227,956.143,894.156,953.7,836Zm135.614-16.273h4.34c-1.24,50.013,11.27,105.223,26.04,141.035,3.35,8.115,6.69,17.675,10.85,26.037,1.9,3.808,6.44,8.978,7.6,13.019,10.04,35.054,34.7,66.294,55.33,94.384,61.41,83.63,147.27,140.32,257.13,175.75,23.97,7.73,50.49,9.27,75.95,15.19q10.305,0.54,20.61,1.09c20.15,4.23,54.15,3.14,72.69-1.09h22.79q25.485-4.335,50.99-8.68c57.92-16.33,106.95-35.88,150.81-65.09,11.17-7.45,21.86-13.85,32.55-21.7,5.34-3.92,9.91-10.13,15.19-14.1,7.24-5.45,15.63-10.82,20.61-18.45,1.71,1.04,3.25,3.95,4.34,2.17,5.74-3.67,16.09-12.79,18.44-19.52-1.76-1.47-1.21-.7-2.17-3.26,24.56-15.1,48.11-55.09,64.02-80.28,10.55-16.71,23.16-34.33,31.46-53.16,11.72-26.6,21.02-54.769,30.38-83.536,5.43-16.708,6.71-34.688,10.85-52.074l1.08-18.443c3.89-17.7,5.36-61.335,1.09-80.282V751.377c-5.24-23.045-4.62-46.648-10.85-68.348-17.81-61.995-41.94-115.885-74.86-162.732-8.01-11.393-18.86-21.55-27.13-32.547-13.98-18.6-30.26-35.887-48.82-49.9-11.56-8.73-20.73-21.689-32.55-30.376-45.1-33.147-96.5-59.7-155.15-79.2-97.65-32.469-232.56-20.162-315.72,15.188-140.4,59.69-228.17,148.994-286.42,290.75-12.8,31.151-16.44,66.515-24.96,101.979-2.29,9.549-1.44,19.553-3.25,28.207-1.37,6.543,3.97,7.57,2.17,13.018-0.54,1.625-3.78,2.069-4.34,3.255Q1089.86,800.195,1089.31,819.725Zm723.67-176.836c52.81-.677,84.32,25.959,99.81,62.923,8.01,19.108,12.27,50.328,3.26,72.687-14.46,35.859-40.35,57.786-81.38,67.263-16.58,3.831-37.35-1.521-47.73-5.424-11.83-4.446-21.19-8.352-30.38-15.189-25.71-19.113-51.18-70.458-32.55-116.082,10.66-26.1,30.59-47.744,56.42-58.584C1787.85,647.366,1807.33,646.35,1812.98,642.889Zm-478.47,1.085c56.53-.723,87.4,22.956,104.16,61.838,8.99,20.851,13.48,52.845,3.25,77.027-9.1,21.526-26.41,39.379-45.56,50.989-7.81,4.73-19.08,8.343-28.21,10.849-18.47,5.064-41.18.9-55.34-4.339-39.76-14.728-58.53-39.746-68.35-84.621-6.15-28.106,12.28-57.308,19.53-74.857,1.6-.008,4.06,1.216,4.34,1.084l17.36-16.273c1.87-3.551-3.41-2.2,1.09-5.424,7.41-5.689,19.82-10.16,29.29-13.019C1321.57,645.568,1329.99,646.919,1334.51,643.974Zm371.06,239.759c6.18-.073,13.82-0.8,18.44,1.085,13.43,5.482,35.4,31.171,28.21,53.159-8.26,25.278-30.16,46.6-49.91,60.754-34.3,24.589-107.18,48.529-168.17,31.459-30.96-8.66-54.55-21.63-77.03-37.969-20.21-14.7-51.41-42.105-40.14-77.026,1.79-5.533,1.22-11.2,4.34-15.189,1.28,0.871,1.82.839,4.34,1.085,1.08-2.893,2.17-5.786,3.25-8.679,11.15-1.793,20.22-11.625,35.81-6.509,19.19,6.3,33.27,31.837,48.82,43.395,18.51,13.763,56.67,25.5,92.22,17.358l14.1-1.085c19.13-5.129,39.57-16.192,49.91-30.376,6.03-8.266,11.34-17.947,19.53-23.868C1694.07,887.875,1700.73,887.259,1705.57,883.733ZM836.522,1435.94v4.34c4.2-.02,13.294-0.17,16.274-2.17-9.975-.1-19.37-3.94-27.124-6.51-18.611-6.17-36.251-9.92-53.162-16.27-32.276-12.14-66.4-19.86-94.391-36.89-21.992-13.38-46.294-24.09-68.351-37.97-18.742-11.8-37.035-25.89-57.5-35.8q0.543-2.715,1.085-5.43c-8.687-2.76-14.933-10.33-21.7-15.18-17.216-12.37-34.425-24.98-48.822-40.15-4.069-4.28-6.173-10.42-10.85-14.1v1.09a41.387,41.387,0,0,1,6.51,11.93c0.483,1.71-1.8,6.4,0,9.76q2.169,1.1,4.34,2.17v6.51c1.446,1.09,2.893,2.17,4.34,3.26v5.42c1.446,1.09,2.893,2.17,4.339,3.26,4.957,8.69,6.838,16.85,11.935,24.95,9.331,14.82,21.96,27.88,31.463,42.31,1.916-1.04,1.823-1.36,4.34-2.17,25.492,41.88,83.117,74.21,135.619,90.05,20.057,6.05,42.526,4.97,64.012,9.76C767.8,1444.55,808.916,1436.37,836.522,1435.94Zm1604.638-1.09c48,0.89,94.53-21.77,123.68-41.22,9.36-6.24,21.55-11.77,28.21-20.61,1.92,1.04,1.83,1.36,4.34,2.17l9.77-9.77c-1.44-1.88-1.88-1.74-1.09-3.25,6.37-6.43,13.12-9.6,17.36-18.45,2.66,0.66,3.22,2.55,4.34,1.09,5.89-4.6,34.5-42.72,36.89-49.91-4.04-1.85-2.24-.27-2.17-4.34,11.71-9.47,21.22-38.15,28.21-53.15h-1.09c-5.44,7.9-14.05,13.75-21.7,19.52q-7.59,7.6-15.18,15.19c-10.71,8.09-20.5,15.98-31.47,23.87-63.02,45.32-128.91,78.83-206.14,110.66-29.62,12.21-61.46,17.44-92.22,29.29v1.08h11.94c4.02,2.48,11.74-.12,17.35,1.09,18.69,4.01,44.72,1.09,64.02,0,10.49-.59,17.35-3.88,24.95,1.08v-4.34Zm-130.19,3.26c1.1,0.87.29,0.38,2.17,1.08C2312.03,1438.32,2312.84,1438.81,2310.97,1438.11Z"/>
</svg>
