<svg style="transform: scale(1.5);" xmlns:dc="http://purl.org/dc/elements/1.1/" xmlns:cc="http://creativecommons.org/ns#" xmlns:rdf="http://www.w3.org/1999/02/22-rdf-syntax-ns#" xmlns:svg="http://www.w3.org/2000/svg" xmlns="http://www.w3.org/2000/svg" xmlns:sodipodi="http://sodipodi.sourceforge.net/DTD/sodipodi-0.dtd" xmlns:inkscape="http://www.inkscape.org/namespaces/inkscape" version="1.1" x="0px" y="0px" viewBox="0 0 100 100">
    <g transform="translate(0,-952.36218)">
        <g transform="translate(20.001613,971.35824)">
            <path d="m 43.653542,0 c -4.074803,2.019685 -8.114173,4.003937 -11.161417,8.007874 -11.161417,4.996063 -15.23622,13.003937 -21.330708,27 l 2.019685,-10.984252 c -4.0393699,4.996063 -6.0590549,9 -6.0590549,14.988189 C 6.094488,38.019685 6.094488,38.019685 5.066929,38.019685 l 2.0551181,2.976378 -4.0748031,0 c 3.2952755,1.629921 1.9133858,3.259842 2.9055118,4.889763 C 16.61811,26.326771 32.492125,14.350394 55.488188,7.0866141 c 0.637795,-0.2480315 1.240157,0.1417323 1.311023,0.6023622 0.106299,0.4606299 0,0.992126 -0.673228,1.2401575 C 33.059054,17.751968 18.921259,31.393701 10.665354,45.46063 c 2.267717,0.35433 4.641732,2.267716 7.61811,1.559055 L 14.208661,45 l 8.114173,0 c -3.047244,-1.311024 -5.066929,-1.984252 -8.114173,-4.003937 9.141732,1.027559 15.23622,1.027559 23.350393,-2.976378 L 30.437007,36 c 4.606299,0 8.681102,-2.196851 12.933071,-3.57874 -1.807087,0.318897 -3.933071,-0.141733 -5.811024,-0.425197 5.066929,-2.976378 10.133858,-4.003937 13.181102,-9 C 54.814959,18.992126 60.909447,15.023622 59.881888,8.007874 57.649605,2.4803149 45.673227,-0.99212598 37.559054,8.9999999 37.559054,6.023622 41.633857,3.011811 43.653542,0 z m -0.283464,32.42126 c 0.46063,-0.1063 0.885826,-0.212599 1.27559,-0.425197 -0.425197,0.141732 -0.850393,0.283464 -1.27559,0.425197 z M 55.842518,8.007874 c -28.452755,9 -45.70866,25.015748 -55.842518,54 L 3.047244,60.023622 C 9.1417321,40.996063 24.377952,20.019685 55.842518,8.007874 z" style="" fill="#ffffff" fill-opacity="1" fill-rule="nonzero" stroke="none"></path>
        </g>
    </g>
</svg>