<svg xmlns="http://www.w3.org/2000/svg" width="2000" height="1596" viewBox="0 0 2000 1596">
  <defs>
    <style>
      .cls-1 {
      fill: #ffffff;
      fill-rule: evenodd;
      }
    </style>
  </defs>
  <path id="things_copy" data-name="things copy" class="cls-1"
    d="M451.555,45.956H37.882L27.09,256.989V796.563l4.8,104.318,63.55,4.8,53.958-7.194V703.037l8.393-130.7h202.64l7.194-14.388V542.364l-17.985-80.337v-25.18l10.791-28.777-35.972,3.6h-128.3l-35.972-11.991V197.036h291.37V45.956Zm497.6,652.286-8.394-4.8V608.312l4.8-13.19-7.195-4.8,2.4-10.791-3.6-14.389,4.8-7.194-3.6-11.991V517.184l3.6-10.792L938.364,492l7.195-6L931.17,458.43l10.791-8.393V432.051l-7.194-13.19,4.8-64.749-9.592-6,4.8-56.355-7.194-6,9.592-27.578,1.2-14.389-11.99-16.786V50.752L905.99,39.96H488.719l9.592,172.664-7.194,8.393,8.394,4.8v8.393l-8.394,21.583,7.194,7.194v25.18l-7.194,38.37v368.11L509.1,929.658H518.7l6-6,3.6,3.6,77.938,7.194H703.35l3.6-7.194,57.554,6h56.356v-6l14.389,6H889.2l9.592,3.6,6-6,5.995,9.593h7.194l6-10.792,9.592,9.593,7.194,1.2-4.8-68.346,6-33.574-7.194-2.4,10.792-9.592-10.792-19.185-3.6-13.19,9.592-4.8-5.995-4.8,4.8-9.593,3.6-51.559-1.2-20.384Zm-130.7,16.787-7.194,4.8,2.4,14.388v61.152H735.724l-105.517,7.195-3.6-7.195,6-55.156V713.829l-10.791-13.19,10.791-6-3.6-110.313-13.189-79.138L636.2,488.406l-17.986-10.791,8.393-4.8,2.4-4.8-7.194-8.394V302.553l-7.194-23.981,7.194-10.791v-6l-6-2.4,4.8-9.592-4.8-71.944H808.866l-3.6,35.972v123.5l-8.393,13.189,9.592,3.6v255.4l8.394,16.787,3.6,68.346v20.384ZM1434.77,605.914V43.557H1114.62l-131.9-6v129.5l-6,14.389v98.322l14.388,79.138v557.56H1451.55ZM1121.81,794.165v-380.1l-9.59-3.6,9.59-10.792-7.19-16.786,7.19-10.792-13.19-202.64h183.46l8.39,14.389,11.99,221.825V794.165H1121.81Zm848.92-633.1-62.35-77.939L1886.8,48.354,1480.32,26.771l4.8,63.55v69.546l-4.8,13.189,8.39,3.6,73.15-5.995,5.99,26.379V789.369l-40.77,2.4-16.78-9.592-14.39,4.8-8.4-1.2,7.2,61.152v69.545l-7.2,4.8h314.16l95.92,4.8,26.38-41.967,37.17-49.161,9.59-8.393V161.065Zm-194.24,637.9h-76.74V245l-8.4-75.54h139.09l-11.99,157.076v85.133l13.19,119.905-10.79,3.6,7.19,49.161,16.79,209.834ZM343.8,1064.53V998.47l-3.886-15.544H297.167l-9.326-5.44-11.658-.778-6.218,2.332-2.331,3.886-5.441-3.109-34.973,1.555-21.761-3.109-9.327,1.554H100.538l-72.279-7.772-3.109,3.109v4.663l6.217,13.212v71.5l-3.109,16.32H158.827v476.42l4.663,6.99h75.388l9.326-7.77-3.886-11.66v-18.65l3.886-10.1v-7l4.663-1.55-4.663-7v-43.52l-2.332-11.66V1254.94l-3.108-27.2V1076.97l13.989-2.34h44.3l36.528,7.78,10.1-10.11Zm369.941,311.65-2.331-2.33,3.886-3.88,1.554-7.78V1230.07l-7-27.98,3.886-4.66,0.777-5.44-3.108-4.66-8.549-62.96,3.108-4.66,3.886-1.55-10.88-46.63-3.109-23.32,4.663-10.1v-32.65l-5.44-20.98H600.269l3.886,75.39v150.77l3.109,13.21-35.751,6.22-53.626,3.11-6.217-13.21,3.109-2.33L514,1204.43l4.663-2.34-17.1-217.61h-99.48l-4.663,4.663,5.44,29.537v82.38l-3.886,24.09v58.29l3.109,6.22-3.886,2.33v209.84l6.218,20.99-6.218,27.2-0.777,12.43,7,9.33-9.327,18.65,7,4.66v21.77l-9.326,7.77,6.217,13.99,15.544,20.2h87.823l4.663-5.44v-44.3l2.331-6.21-3.886-55.18,2.332-55.96,3.886-7-4.663-3.11v-5.44l6.994-6.99-6.994-3.11v-6.22l-2.332-13.99,1.554-1.55h22.539l73.833-4.66v178.75l16.321,40.41h90.931V1396.39l7-13.21Zm65.272-387.037-14.766,7.772,6.994,2.332V1557.27l94.04,12.43,7-82.38V989.143H779.011ZM1251.53,1176.45l4.67-2.34v-7.77l-3.11-3.11-6.22-58.29v-22.53l-9.33-97.152h-81.6l-7,18.652,13.99,324.87-3.88-3.89-42.75-123.57-26.42-55.18-0.78-9.33-8.55-18.65,1.55-3.11-4.66-3.11-58.29-129.014-13.21,4.663H966.3L946.874,983.7l-9.327,86.267v108.81l13.213,367.61,11.657,2.33h17.1l6.217-2.33,3.886,3.88h30.311l13.21-3.88,6.22-176.42-2.33-5.44,0.77-6.22-6.21-46.63,3.88-22.54-4.66-10.88v-54.41l16.32,52.08,42.75,111.13,39.63,92.49,28.76,59.84-2.33,7,4.66,9.32h88.6l3.11-88.59,3.89-15.55,6.21-7.77-6.21-3.11v-8.55l5.44-2.33-5.44-8.55,4.66-78.5-2.33-2.33,3.88-11.65-3.11-3.11Zm67.6-188.861v568.9h281.35V1222.3H1448.93v103.37h64.5V1471l-4.66,2.33h-12.44l-5.44-3.11-17.09,10.11-6.22-10.11h-43.52l-13.22-3.1-6.99-19.43V1094.06l10.1-20.2h99.48v77.72h82.38l11.66-138.34V987.589H1319.13Zm659.83,460.871-0.78-8.55-5.44-3.11,4.66-22.53-4.66-111.14,3.89-2.33v-5.44l-34.98-15.55v-6.22l-179.53-93.26-10.1-7.77v-16.32l2.33-7-3.11-3.1v-18.66l3.11-8.55-4.66-7.77v-30.31h85.49l36.52-2.33,13.99,1.55v104.15l7,24.87,78.5,6.99V1082.41l-5.45-10.11,3.11-5.44V1045.1l-9.32-13.21,4.66-2.33-3.11-34.2-17.87-5.44-3.89-4.663-59.07,4.663-2.33-3.886-12.43-.777-24.1,6.217-3.88-4.663-24.87,4.663-3.11-3.109-13.21-1.554-3.89,3.109H1669.64V1233.18l218.39,104.14,8.55,138.34H1760.57l-3.89-33.41,2.33-6.22V1365.3l4.67-3.88-5.44-7.77v-36.53h-50.52l-32.64,1.55-3.11,4.67v166.31l5.44,48.97,5.44,16.32h224.61l7.77-1.56,58.29,3.11,3.11-26.42-6.22-10.11v-18.65l10.88-51.29Z" />
</svg>