<svg id="Logo" xmlns="http://www.w3.org/2000/svg" width="2599" height="295" viewBox="0 0 2599 295">
  <defs>
    <style>
      .cls-1 {
        fill: #ffffff;
        fill-rule: evenodd;
      }
    </style>
  </defs>
  <path id="Icon" class="cls-1" d="M293.839,141.449H173.889c-15.912,0-36.595,3.584-39.984-9.348q-0.144-4.89-.287-9.78c0-14.748,2.581-25.071,7.91-34.231,8.15-14.01,19.949-24.229,37.107-29.2,11.141-3.226,27.286-2.158,41.422-2.157h73.782c-0.166-13.851-1.856-26.478,9.061-29.484a12.912,12.912,0,0,1,9.492,1.151l48.9,48.613c4.931,4.931,15.91,12.834,17.115,20.567,1.4,8.965-11.4,17.877-15.821,22.293l-50.195,49.908a12.812,12.812,0,0,1-10.067,1.007C292.084,167.274,293.705,155.127,293.839,141.449ZM120.386,152.092H240.048c15.993,0,36.477-3.567,40.127,9.2l0.288,9.493c0,14.23-2.105,24.47-7.191,33.367-8.625,15.089-20.47,25.579-38.977,30.779-10.723,3.013-26.563,1.726-39.839,1.726h-74.07c0.171,14.023,1.778,26.671-9.349,29.628a13.1,13.1,0,0,1-9.205-1.151c-5.674-3.323-10.356-9.923-14.958-14.526L52.5,216.239c-5.012-5.012-15.65-12.555-16.828-20.567-1.278-8.694,11.6-17.79,15.965-22.15l50.051-49.763a12.942,12.942,0,0,1,9.78-1.151C122.1,125.929,120.521,138.215,120.386,152.092Z"/>
  <path id="LB-logo_1" data-name="LB-logo 1" class="cls-1" d="M2447.97,22.235c35.63-.469,69.92,2.167,98.82,8.982,2.03,2.95,5.69,5.492,6.99,8.982,1.79,4.792.68,39.032-2,42.913-3.21,9.921-16.54,12.923-29.94,9.98-19.73-4.332-50.65-4.8-70.88-1v2c-1.54,2.343-.58,4.272,0,6.986,47.01,20.917,97.88,9.331,110.81,66.863,2.03,9.057,1.81,22.685,0,30.937-2.81,12.757-1.66,21.739-5.99,31.935-8.03,18.868-26.08,30.8-46.92,36.925q-8.49,1-16.97,2c-9.43,2.09-24.79,3.2-34.94,1h-21.96c-16.08-3.549-45.6-3.152-57.9-9.98-3.58-1.988-5.22-7.065-7.99-9.98-0.15-21.643-2.34-48.389,14.98-52.892,6.28-1.632,17.53,1.8,22.96,2.994l43.92,2.994c10.57,0.08,23.72,1.393,26.95-5.988,0.88-1.292.9-2.462,1-4.99-12.86-7.6-32.73-6.117-48.91-10.977-41.21-12.377-64.13-24.747-63.89-78.839a100.873,100.873,0,0,1,2.99-23.951c3.87-14.809,6.93-25.725,15.98-34.929,9.33-9.5,23.04-15.059,37.93-18.961C2430.07,23.379,2441.97,25.844,2447.97,22.235ZM406.562,27.224c19.118-.066,61.707-4.154,68.878,6.986,5.158,8.012,2,30.12,2,41.915V188.9c1.8,5.57,7.241,7.343,10.98,10.977,19.184-.393,60.075-5.584,64.886,8.982,5,6.415,1.844,43.186,0,50.9-3.283,2.191-5.723,5.8-9.982,6.986H435.511c-15.135,0-32.972,2.287-38.932-6.986-5.225-8.129-2-45.486-2-58.88V93.09c0-19.2-1.657-42.915,2-58.88C399.566,32.118,403.571,29.7,406.562,27.224Zm173.694,0c21.248-.156,47.954-2.108,65.884,2,9.125,14,5.989,42.028,5.989,64.868v107.78c0,19.21,1.622,42.9-2,58.88-2.848,1.885-5.319,4.966-8.985,5.988H625.177c-16.5,0-36.543,1.106-49.913-2-9.125-14-5.989-42.028-5.989-64.868V92.092c0-19.21-1.622-42.9,2-58.88A86.988,86.988,0,0,0,580.256,27.224Zm98.826,0h99.824c19.822,0,43.609-.954,58.9,2.994,7.75,11.924,8.4,39.717,3.993,56.884-3.261,2.027-5.977,5.813-9.982,6.986-15.114,4.423-27.278-4.472-31.944,9.98-4.571,6.224-2,25.04-2,34.928v89.817c0,15.6,1.459,29.88-7.986,35.927-6.377,4.083-22.243,2-31.943,2-16.69,0-34.4,2.209-40.928-7.984-4.935-7.7-2-28.527-2-39.919V107.062c-6.356-22.928-40.364-3.878-46.917-21.956-2.311-2.921-3.738-41.711-1-45.906C669.106,31.577,673.807,31.342,679.082,27.224Zm185.673,0h99.824c19.822,0,43.611-.954,58.891,2.994,7.75,11.924,8.41,39.717,4,56.884-3.26,2.027-5.98,5.813-9.98,6.986-15.12,4.423-27.282-4.472-31.948,9.98-4.571,6.224-2,25.04-2,34.928v89.817c0,15.6,1.459,29.88-7.986,35.927-6.377,4.083-22.243,2-31.943,2-16.69,0-34.4,2.209-40.928-7.984-4.935-7.7-2-28.527-2-39.919V107.062c-6.356-22.928-40.364-3.878-46.917-21.956-2.311-2.921-3.738-41.711-1-45.906C854.779,31.577,859.48,31.342,864.755,27.224Zm190.665,0c19.12-.066,61.71-4.154,68.88,6.986,5.15,8.012,1.99,30.12,1.99,41.915V188.9c1.81,5.57,7.25,7.343,10.98,10.977,19.19-.393,60.08-5.584,64.89,8.982,5,6.415,1.84,43.186,0,50.9-3.28,2.191-5.72,5.8-9.98,6.986H1084.37c-15.14,0-32.97,2.287-38.93-6.986-5.23-8.129-2-45.486-2-58.88V93.09c0-19.2-1.66-42.915,2-58.88C1048.42,32.118,1052.43,29.7,1055.42,27.224Zm170.7,0h127.77c13.09,0,38.18-3.753,41.93,5.988,1.79,2.728,1,9.6,1,13.971,0,12.3,3.54,38.537-4,43.91-4.04,2.952-13.02,2-19.96,2h-46.92c-11.47,0-20.86-1.58-23.96,6.986-4.39,6.45,3.21,11.22,5.99,13.971h60.9q3.5,3.494,6.98,6.986c0.14,9.789,2.68,45.1-.99,50.9-1.3,3.843-3.58,4.474-5.99,6.986-23.49-.689-89.64-7.668-60.9,21.955,20.84-.157,70.82-3.936,85.85,2,5.15,8.944,4.54,47.183,2,59.878-9.24,5.4-26.96,3.992-41.93,3.992h-91.84c-13.44,0-36.22,3.227-41.92-4.99-4.68-6.195-2-40.533-2-51.894V82.112c0-9.663-2.66-42.028,1-47.9C1220.61,29.844,1223.05,29.778,1226.12,27.224Zm199.65,0c61.02-.719,147.3-9.183,172.69,25.947,6.7,9.258,15.3,26.512,10.98,45.906-1.83,8.245-2.4,18.023-5.99,24.949-3.95,7.642-8.73,9.324-8.98,21.955,5.9,5.962,13.59,13.859,16.97,21.955q1.995,10.477,3.99,20.958c6.13,65.114-43.89,77.839-103.81,77.841h-67.89c-13.36,0-24.43.861-27.95-8.982-4.9-6.508-1.99-44.856-1.99-56.884V93.09c0-19.2-1.64-42.9,1.99-58.88A104.281,104.281,0,0,0,1425.77,27.224Zm215.62,0c21.02-.113,59.43-5.2,67.88,7.984,5.58,8.706,1.99,33.25,1.99,45.906,0,36.052-4.64,86.365,3,116.762,11.69,7.15,21.23,6.525,35.93,2.994,7.21-11.751,5.99-24.689,5.99-43.91V78.121c0-12-3.27-34.738,2-42.912,6.56-10.184,24.22-7.983,40.93-7.984,9.68,0,25.59-2.1,31.94,2,13.54,8.72,7.99,49.346,7.99,70.856,0,71.7,9.14,139.606-41.93,161.67-11.01,4.756-25.36,7.69-38.93,8.982-11.71,1.114-26.9,2.391-37.93,0h-12.98c-15.76-3.469-31.79-4.769-43.92-11.976-40.67-24.157-34.94-76.078-34.94-139.715,0-26.761-3.31-60.559,2-83.829A119.684,119.684,0,0,0,1641.39,27.224Zm228.59,0c21.25-.156,47.96-2.108,65.89,2,9.12,14,5.99,42.028,5.99,64.868v107.78c0,19.21,1.62,42.9-2,58.88-2.85,1.885-5.32,4.966-8.98,5.988H1914.9c-16.49,0-36.54,1.106-49.91-2-9.12-14-5.99-42.028-5.99-64.868V92.092c0-19.21-1.62-42.9,2-58.88A86.183,86.183,0,0,0,1869.98,27.224Zm105.82,0c19.12-.066,61.71-4.154,68.88,6.986,5.15,8.012,1.99,30.12,1.99,41.915V188.9c1.81,5.57,7.24,7.343,10.98,10.977,19.19-.393,60.08-5.584,64.89,8.982,5,6.415,1.84,43.186,0,50.9-3.28,2.191-5.72,5.8-9.98,6.986H2004.75c-15.14,0-32.97,2.287-38.93-6.986-5.23-8.129-2-45.486-2-58.88V93.09c0-19.2-1.66-42.915,2-58.88C1968.8,32.118,1972.81,29.7,1975.8,27.224Zm174.69,0c80.34-.717,157.82-8.1,188.67,41.915,9.29,15.056,9.48,29.38,13.97,49.9,2.28,10.412,3.42,27.746,1,38.921v12.973c-2.97,13.286-4.11,27.28-8.98,38.921-21.66,51.7-64.72,56.884-137.76,56.884-21.26,0-47.25,1.33-63.89-2.994-7.18-12.09-4.99-36.468-4.99-55.886V83.11c0-11.04-2.9-40.165,1-47.9C2141.75,30.766,2146.76,30.194,2150.49,27.224ZM1500.63,82.112c-5.34,8.178-4.17,20.312-3.99,33.931,6.99,4.6,12.98,4.191,24.96,3.992,0.86-.647,3.14-1.335,3.99-2,4.5-1.432,5.12-4.154,7.99-6.986,1.04-9.862,2.44-22.727-5.99-25.947C1522.78,80.669,1509.81,81.937,1500.63,82.112Zm731.72,11.976c-3.5,2.771-8.09,3.653-9.99,7.984-2.67,6.086-.99,18.078-1,25.947,0,21.267-2.19,47.919,2,65.865,2.39,1.553,2.92,2.917,5.99,3.992,8.6,6.767,27.33-1.441,31.94-5.988,14.17-13.954,14.83-73.095,2-89.816C2258.09,95.291,2244.53,93.8,2232.35,94.088Zm-731.72,77.841a24.674,24.674,0,0,1-3.99,4.99c-0.1,10.421-.74,23.131,1,31.935,8.14,5.013,32.45,5.042,35.94-3.992,3.66-3.833,4.7-19.055.99-23.951-1.43-4.5-4.15-5.122-6.98-7.984C1519.7,172.4,1509.91,171.937,1500.63,171.929Z"/>
</svg>
