<svg id="arrows" xmlns="http://www.w3.org/2000/svg" width="50" height="36" viewBox="0 0 50 36">
  <defs>
    <style>
      .cls-1 {
        fill: #fff;
        fill-rule: evenodd;
      }
    </style>
  </defs>
  <path id="right" fill='#fff' d="M36.827,17.265H20.567c-2.082,0-4.993.474-5.536-1.2-0.055-.17.022-0.405-0.019-0.6s0.024-.451-0.019-0.658a1.774,1.774,0,0,1,0-.581V13.761l0.116-1.1c0.092-.377.132-0.763,0.251-1.123a7.924,7.924,0,0,1,.772-1.684A8.39,8.39,0,0,1,21.2,5.922a9.987,9.987,0,0,1,2.623-.271,5.214,5.214,0,0,1,1.138,0H25.35a7.162,7.162,0,0,1,1.369.019H36.827c-0.018-1.823-.262-3.428,1.1-3.988a1.787,1.787,0,0,1,1.447.1l2.18,2.207c1.517,1.523,3.053,3.027,4.571,4.549,0.814,0.816,1.962,1.446,2.257,2.768a1.59,1.59,0,0,1-.328,1.084,11.4,11.4,0,0,1-1.871,1.936c-1.6,1.606-3.221,3.194-4.822,4.8l-1.427,1.432a3.328,3.328,0,0,1-.656.639,2.773,2.773,0,0,1-.54.155,1.476,1.476,0,0,1-1.119-.271C36.62,20.411,36.823,18.857,36.827,17.265Z"/>
  <path id="left" fill='#fff' d="M13.248,18.692H29.51c2.082,0,4.994-.474,5.537,1.2,0.055,0.17-.022.4,0.019,0.6s-0.024.451,0.019,0.658a1.77,1.77,0,0,1,0,.581v0.464L34.97,23.3c-0.092.377-.132,0.763-0.251,1.122a7.915,7.915,0,0,1-.772,1.684,8.391,8.391,0,0,1-5.074,3.928,10,10,0,0,1-2.624.271,5.218,5.218,0,0,1-1.138,0H24.726a7.167,7.167,0,0,1-1.37-.019H13.248c0.018,1.822.262,3.427-1.1,3.986a1.788,1.788,0,0,1-1.447-.1l-2.18-2.206C7,30.445,5.467,28.941,3.949,27.419c-0.814-.816-1.962-1.446-2.257-2.767a1.589,1.589,0,0,1,.328-1.084,11.392,11.392,0,0,1,1.871-1.935c1.6-1.606,3.222-3.193,4.823-4.8L10.142,15.4a3.33,3.33,0,0,1,.656-0.639,2.768,2.768,0,0,1,.54-0.155,1.477,1.477,0,0,1,1.119.271C13.454,15.547,13.251,17.1,13.248,18.692Z"/>
</svg>
