<svg
    xmlns="http://www.w3.org/2000/svg"
    viewBox="0 0 2000 382"
  >
    <path
      fill="#fffbfe"
      d="M783.349,37.971q-18.489-23.094-60.792-23.1-20.427,0-43.284,8.511A222.111,222.111,0,0,0,635.5,45.51Q616.535,14.87,568.874,14.87q-20.916,0-44.743,9A214.712,214.712,0,0,0,478.9,47.455l-13.132-24.8H418.6V258.525h76.355V97.548A257.714,257.714,0,0,1,523.4,82.714q12.881-5.585,23.1-5.593,15.069,0,20.67,9.484,5.584,9.484,5.593,27.478V258.525h75.868V97.548a271.281,271.281,0,0,1,28.208-14.833q12.641-5.585,22.858-5.593,15.069,0,20.669,9.484t5.593,27.478V258.525H801.83V103.87Q801.83,61.08,783.349,37.971Zm92.643-7.3a107.746,107.746,0,0,0-43.527,43.77Q816.9,102.9,816.9,140.832q0,57.882,37.2,90.458T956,263.875q28.69,0,52.765-7.3t40.61-19.453l-21.4-53.011Q994.9,202.6,961.345,202.6q-51.556,0-62.252-41.339H1050.34V138.4q0-34.526-12.4-62.251a102.281,102.281,0,0,0-37.2-44.257q-24.807-16.528-60.794-16.535T875.992,30.676Zm89,58.361q9.963,10.943,12.888,28.937H898.121q1.938-17.986,12.888-28.937T938,78.094Q955.019,78.094,964.992,89.037ZM1272.11,75.906Q1258,47.455,1231.5,31.892q-26.52-15.559-62.5-15.563-11.67,0-27.96,5.593a133.681,133.681,0,0,0-30.88,15.32l-10.22-14.59h-26.26V370.383h46.69V251.23a116.517,116.517,0,0,0,25.53,10.213,90.3,90.3,0,0,0,22.62,3.405q35.01,0,61.76-15.32a104.783,104.783,0,0,0,41.34-43.041q14.6-27.721,14.59-64.2Q1286.21,104.356,1272.11,75.906Zm-52.04,125.961q-18.495,23.1-51.07,23.1-28.2,0-48.63-16.049V73.231q19.935-17.018,48.63-17.022,33.075,0,51.31,23.831t18.24,62.737Q1238.55,178.774,1220.07,201.867ZM1436.24,73.474q10.455,15.32,10.46,44.014h-55.93q-39.39,0-62.98,19.21t-23.59,53.74q0,33.558,20.91,53.74t61.28,20.183q17.985,0,36.96-8.267t32.1-19.94l5.84,22.371h32.58v-160a74.038,74.038,0,0,0-12.4-41.339q-12.4-18.967-34.29-29.91t-48.63-10.943q-16.545,0-42.07,6.079T1318.3,37.242L1331.44,74.2q35.985-16.049,68.08-16.049Q1425.785,58.154,1436.24,73.474Zm10.94,75.139v47.661a103.263,103.263,0,0,1-28.69,22.615,69.757,69.757,0,0,1-33.07,8.511q-18.975,0-29.18-10.943a36.821,36.821,0,0,1-10.21-26.019q0-17.508,11.67-29.666t32.1-12.159h57.38Zm285-125.961h-26.75l-9.24,16.535a109.213,109.213,0,0,0-32.1-17.022q-17.5-5.836-30.15-5.836-35.025,0-61.77,15.32a104.783,104.783,0,0,0-41.34,43.041q-14.58,27.721-14.59,64.2,0,37.935,14.11,66.385t40.61,44.014q26.49,15.56,62.49,15.563,10.215,0,24.32-4.377A127.135,127.135,0,0,0,1685,248.312v30.64q0,25.771-18.48,39.636t-48.63,13.861q-18.975,0-31.37-4.134t-36.72-14.833l-14.1,33.557q15.06,10.214,40.85,16.778,25.77,6.566,42.8,6.566,35.49,0,60.79-11.672,25.275-11.672,38.66-32.342t13.38-46.931V22.652Zm-70.52,197.453q-12.165,4.868-28.21,4.863-33.075,0-51.31-23.83T1563.9,138.4q0-35.985,18.48-59.09t51.07-23.1a83.637,83.637,0,0,1,27.96,4.377A73.056,73.056,0,0,1,1685,74.69V205.028A77.4,77.4,0,0,1,1661.66,220.105ZM1812.18,31.892q-25.545,15.57-39.15,43.77-13.635,28.211-13.62,64.683,0,56.9,33.07,90.459t94.83,33.557q42.8,0,85.6-25.775l-14.59-34.044q-24.81,11.672-38.66,16.292t-32.35,4.62q-37.935,0-57.14-19.939t-22.13-54.47h167.3V138.4q0-53.493-26.02-87.784t-77.08-34.287Q1837.7,16.329,1812.18,31.892Zm117.93,87.541h-121.1q3.4-29.659,19.21-46.445t42.56-16.779q50.085,0,59.33,63.224h0Z"
    />
  </svg>