<svg style="transform: scaleX(-1);" xmlns="http://www.w3.org/2000/svg" fill='#ffffff' data-name="Layer 1" viewBox="0 0 100 100" x="0px" y="0px">
    <title>A</title>
    <path d="M55.74756,79.39008C69.99365,81.88245,78.74792,76.67474,95,81.92816c-1.18823-3.15387-1.78247-4.73083-2.971-7.8847C80.37952,70.27783,72.58374,71.88892,63.856,72.18591A35.09713,35.09713,0,0,1,55.74756,79.39008Z"></path>
    <path d="M23.51715,78.96655A31.92048,31.92048,0,1,0,7.96167,36.58893,31.9206,31.9206,0,0,0,23.51715,78.96655Zm20.59528-5.22046A24.82388,24.82388,0,0,1,33.99,74.64978a3.19583,3.19583,0,0,1-2.46967-4.528l3.7096-8.01227a3.20962,3.20962,0,0,1,5.53674-.4997l5.07263,7.20252A3.22033,3.22033,0,0,1,44.11243,73.74609ZM33.70972,48.50983a3.54672,3.54672,0,1,1,1.72839,4.70861A3.54672,3.54672,0,0,1,33.70972,48.50983ZM61.10321,55.6474a24.7812,24.7812,0,0,1-4.22845,9.13306,3.2203,3.2203,0,0,1-5.226-.03821l-5.0827-7.2168a3.20972,3.20972,0,0,1,2.33569-5.04486l8.79126-.79333A3.22023,3.22023,0,0,1,61.10321,55.6474ZM45.06311,40.87079l3.70953-8.01227a3.1958,3.1958,0,0,1,5.05048-1.04626,24.82238,24.82238,0,0,1,5.85974,8.30316,3.22033,3.22033,0,0,1-2.64477,4.50873l-8.77387.7918A3.20965,3.20965,0,0,1,45.06311,40.87079ZM29.74353,26.254A24.8239,24.8239,0,0,1,39.866,25.35028a3.19583,3.19583,0,0,1,2.46966,4.528L38.6261,37.89056a3.20968,3.20968,0,0,1-5.53681.49964l-5.07263-7.20252A3.22033,3.22033,0,0,1,29.74353,26.254ZM12.75281,44.35266a24.77864,24.77864,0,0,1,4.22845-9.13306,3.2202,3.2202,0,0,1,5.22589.03827l5.08264,7.21674a3.20968,3.20968,0,0,1-2.33569,5.04486l-8.7912.79334A3.22019,3.22019,0,0,1,12.75281,44.35266Zm4.06512,11.02326,8.77381-.79175a3.20965,3.20965,0,0,1,3.20117,4.5451l-3.7096,8.01233a3.19581,3.19581,0,0,1-5.05041,1.04627,24.82378,24.82378,0,0,1-5.8598-8.30323A3.22037,3.22037,0,0,1,16.81793,55.37592Z"></path>
</svg>