<svg xmlns="http://www.w3.org/2000/svg" fill='#ffffff' width="750" height="164" viewBox="0 0 750 164">
  <defs>
    <style>
      .cls-1 {
        fill-rule: evenodd;
      }
    </style>
  </defs>
  <path id="Shape_333_1" data-name="Shape 333 1" class="cls-1" d="M614.317,119.844c1.284-4.9,5.469-8.185,7.921-11.86v-1.977l1.98-.988v-1.977l2.971-1.977V99.088l3.96-2.965V94.146l4.95-3.954V88.216l8.911-7.907,8.911-9.884h1.98l4.95-5.93h1.98l0.991-1.977,2.97-.988,2.97-3.953h1.98l0.99-1.977h1.98l0.991-1.977h1.98l0.99-1.977h1.98l0.99-1.977h1.98l0.99-1.977h1.98V46.7h1.981l0.99-1.977,3.96-.988,0.99-1.977h1.98l1.98-1.977h1.981V38.8h1.98V37.809h1.98V36.821h1.98V35.833h1.98V34.844h1.98V33.856l5.941-1.977V30.891h2.97V29.9l3.96-.988V27.926H726.2V26.937l6.93-1.977V21.007c-1.123-.834-0.144.125-0.99-0.988l-29.7,9.884v0.988l-5.941,1.977v0.988h-1.98v0.988h-2.97v0.988l-3.96.988v0.988H685.6l-0.99,1.977h-1.98v0.988h-1.98l-1.98,1.977h-1.98l-0.99,1.977-3.961.988-0.99,1.977h-1.98l-0.99,1.977H665.8l-0.99,1.977h-1.981l-0.99,1.977h-1.98l-0.99,1.977h-1.98l-2.97,3.954h-1.98l-2.971,3.953h-1.98l-7.92,8.9L626.2,84.263v1.977l-4.95,3.953V92.17l-2.97,1.977v1.977l-2.97,1.977v1.977l-1.981.988v1.977l-1.98.988-8.911,15.814h-0.99v-0.988h-0.99v-5.931h-0.99l-3.96-4.941c3.073,0.108,7.337.464,8.911-.989a11.752,11.752,0,0,1-3.961-6.918h0.99c1.154,1.345,1.807,1.51,3.961,1.976-0.311-10.846,2.263-17.228,5.94-23.72V76.356l1.98-.988V73.391h0.99c1.6-2.7,2.34-5.273,4.951-6.919V65.484h0.99v2.965c-1.292,1.453-3.889,17.227-3.96,20.756h0.99V87.228c2.419-2.175,1.526-4.143,2.97-6.919h0.99V78.333h0.99V76.356h0.99l0.99-3.954h0.99l0.99-4.942,1.981-.988V64.5h0.99l1.98-5.93,1.98-.988,0.99-3.954,1.98-.988V50.658l2.971-1.977V46.7l2.97-1.977V42.751l1.98-.988,5.94-6.919h1.981l2.97-3.953h1.98l0.99-1.977,3.96-.988,0.99-1.977h1.981V24.96h1.98l1.98-1.977h1.98l4.951-6.919h1.98l2.97-3.954,17.821-9.884V4.2l-3.96,2.965V9.146l-2.97,1.977c-3.364,3.428-7.3,7.837-7.921,13.837h0.99V23.972h0.99V22h0.99l0.991-1.977h1.98l2.97-3.953h1.98l0.99-1.977h1.98V13.1l3.961-.988V11.123h2.97V10.135h3.96c15.605-4.881,33.482,4.4,33.663,18.779h-0.99v4.942h-0.99v2.965h-0.99l-0.99,3.953h-0.99v1.977l-3.961,2.965v1.977l-1.98.988-4.95,5.93h-1.98L708.375,72.4,684.613,84.263v0.988c2.835-.035,10.509.7,11.881,1.977-4.743.322-7.445,2.568-10.891,3.953l-8.91,1.977v0.988c-3.477,1.19-7.545-.243-9.9,1.977,5.911,0.439,10.337,2.834,15.841,3.954v0.988h-0.99v0.988h-2.97v0.989l-3.961.988v0.989h-2.97c-13,5.166-31.37,5.868-47.524,2.965v0.988h0.99c3.852,4.352,12.106,6.545,17.822,8.9v0.989H625.208v0.988h1.981c1.382,1.635,3.423,2.447,5.94,2.965V123.8h-7.921C623.52,122.122,617.156,120.389,614.317,119.844Zm105.939-93.9h1.98v0.988C720.247,26.37,721.38,27.056,720.256,25.949Zm-2.97.988h1.98v0.988C717.276,27.359,718.41,28.044,717.286,26.937Zm-2.97.988h2.97v0.988h-1.98c-2.01,2.241-2.2.733-4.951,1.977v0.988h-1.98v0.988H706.4v0.988h-1.98v0.988h-1.98v0.988h-1.98v0.988l-3.961.988-0.99,1.977-5.94,1.977-0.99,1.977-3.961.988v0.988l-2.97.988-0.99,1.977h-1.98l-0.99,1.977H675.7v0.988l-2.971.988-0.99,1.977h-1.98l-1.98,2.965H665.8l-1.98,2.965h-1.981l-2.97,3.953h-1.98L649.96,72.4h-1.98l-2.97,3.954-7.921,6.919v1.977l-6.93,5.93v1.977L626.2,96.123V98.1l-2.97,1.977v1.976l-2.97,1.977v1.977l-1.98.988v1.977l-1.98.988-0.99,3.954-1.981.988-0.99,2.965h-0.99v1.977l-1.98,1.977V123.8h-0.99v1.976h-0.99v1.977l-1.98.988v1.977h-0.99v2.965h-0.99v1.977h-0.991q-0.494,1.977-.99,3.954h-0.99v2.965h-0.99v1.976h-0.99v2.965h-0.99V149.5H596.5v2.965h-0.99v2.965h-0.99V157.4l-7.921,4.942v-1.977c2.633-2.369,1.5-4.513,2.97-7.907h0.991v-1.976h0.99v-2.966h0.99v-1.976h0.99v-2.965h0.99l1.98-5.931h0.99V134.67h0.99v-2.965h0.99l0.99-3.954h0.99q0.495-1.977.99-3.953l1.981-.989v-1.977h0.99v-1.976l1.98-1.977V114.9h0.99l0.99-2.965,1.98-.988,0.99-3.954,1.98-.988V104.03l1.981-.988v-1.977l2.97-1.977V97.112l2.97-1.977V93.158l2.97-1.977V89.2l5.941-4.942V82.286l8.911-7.907,3.96-4.942H646l4.95-5.93,2.971-.988,1.98-2.965h1.98l1.98-2.965h1.98l0.99-1.977,2.971-.988V52.635h1.98l0.99-1.977,2.97-.988V48.681l3.961-.988,0.99-1.977,3.96-.988,0.99-1.977h1.98V41.763h1.98V40.774h1.981V39.786h1.98V38.8h1.98V37.809l5.94-1.977V34.844h2.971V33.856l3.96-.988V31.879C708.068,30.259,711.84,30.683,714.316,27.926Zm-528.7,132.442c-0.648-3.461-2.547-5.415-3.96-7.907v-1.976l-1.98-.989-0.99-3.953-1.981-1.977v-1.977h-0.99v-1.976h-0.99v-1.977h-0.99v-1.977h-0.99v-1.977l-4.95-7.907H148.979v0.989c2.467,0.641,1.648.479,2.97,1.976h0.99v1.977h0.991v29.651c-6.464,2.389-18.509,1.04-26.733.989-2.656-7.258-.99-20.586-0.99-29.651V67.46c1.348-1.152,1.513-1.8,1.98-3.954l6.931-4.942H153.93c21.506,0,35.953-.1,48.514,8.9l1.98,2.965h0.99V72.4l2.97,1.977,3.96,11.86c2.889,10.082-4.781,26.6-8.91,29.652h-1.981l-1.98,2.965h-1.98v0.988c-1.684,1.576-1.5.817-1.98,3.954l7.921,12.848v1.977l1.98,0.989v1.976h0.99v1.977l1.98,1.977v1.976l1.98,0.989v1.977c1.826,3.241,3.624,4.718,3.961,9.883-6.464,2.389-18.509,1.04-26.733.989C186.464,160.23,187.589,160.962,185.612,160.367Zm59.405,0.989c-7.052,1.26-17.161,1-25.742.988l-0.99-5.93h0.99v-1.977h0.99l1.98-8.9h0.99v-1.977h0.99q0.99-4.447,1.981-8.9h0.99v-1.977h0.99l0.99-5.93h0.99V123.8h0.99v-1.977h0.99l0.99-5.93h0.99v-2.966h0.99v-1.976h0.99l1.98-8.9h0.991v-1.976h0.99l1.98-8.9h0.99V89.2h0.99l1.98-8.9H247V78.333h0.99V75.367h0.99V72.4h0.99l3.961-11.86c7.017-3.152,23.165-2.581,31.682-.988,0.61,1.213,1.664,1.462,1.981,1.977v1.977h0.99l0.99,5.93h0.99v1.977h0.99l1.98,8.9h0.99v1.977h0.99l1.98,8.9h0.99v1.977h0.991l1.98,8.895h0.99v1.977h0.99l1.98,8.895h0.99V114.9h0.99l1.98,8.9h0.99v1.976h0.991l0.99,5.931h0.99l0.99,5.93h0.99v1.977h0.99q0.99,4.446,1.98,8.9h0.99v1.977h0.99c1.251,2.877,1.813,7.076,1.98,10.872-5.966,2.207-17.065,1.039-24.752.988-0.965-1.959-3.1-4.02-3.96-5.93l-0.99-5.93h-0.99v-1.977h-0.99v-2.965h-0.99c-1.8-4.418,1.052-6.144-4.951-6.919v0.989l-6.93.988v0.988h-3.961c-8.086,2.605-17.883,2.96-28.712,2.965v0.989C251.358,149.1,246.18,156.35,245.017,161.356Zm165.344-101.8c0.955,5.319,1,12.994.99,19.767a13.174,13.174,0,0,0-3.961,2.965h-49.5v0.988c5.029,2.895,4.154,10.819,3.961,18.779H399.47c2.713,5.19,2.058,13.728,1.98,21.745h-0.99v0.988c-12.548,1.127-28.465.977-42.574,0.988v0.989c6.612,3.882,4.127,23.39,3.961,33.6-6.215,2.3-17.788,1.04-25.742.989q-0.5-1.483-.991-2.965c-2.145-2.426-.99-18.739-0.99-23.721,0-22.956-1.777-50.416,1.981-70.175l3.96-2.965V60.542l3.96-.988V58.565h18.812C378.192,58.565,396.705,57.068,410.361,59.553Zm98.018,0V81.3c-7.756,2.854-25.686,1.038-35.643.988v0.988h1.98a21.648,21.648,0,0,0,3.96,4.942v72.151c-1.123.835-.144-0.125-0.99,0.989-7.414.728-18.358,1.354-25.742,0l-0.99-2.965c-2.016-2.3-.99-15.223-0.99-19.768V84.263l-2.97-.988c-2.323-2.084-19.792-1.073-24.752-.988-2.224-4.211-2.066-6.2-1.981-12.849h0.991V65.484c2.639-1.752,2.278-3.944,5.94-4.942,3.412-3.379,14.263-1.977,20.792-1.977C466.584,58.565,491.871,56.507,508.379,59.553ZM560.853,98.1h1.98c0.707-3.048,2.694-4.59,3.961-6.919V89.2h0.99V87.228l1.98-.988V84.263h0.99V82.286h0.99V80.309l1.98-1.977V76.356l1.98-.988V73.391h0.99V71.414l1.981-1.977V67.46l1.98-.988,0.99-3.953h0.99l1.98-2.965h1.98V58.565c7.659-.075,16.617-0.151,22.772.988a10.454,10.454,0,0,1,.99,3.953c-2.4,2.156-2.353,4.986-3.96,7.907h-0.99v1.977l-1.98.988v1.977h-0.991v1.977h-0.99v1.977l-1.98,1.977v1.977l-1.98.988v1.977l-1.98,1.977v1.977h-0.99v1.977h-0.99l-0.99,3.954-1.98.988v1.977h-0.991v1.976h-0.99v1.977h-0.99v1.977H586.6v1.977l-1.98,1.976v1.977l-1.98.988-0.99,3.954h-0.99v1.977h-0.99q-0.99,2.964-1.981,5.93h-0.99v2.965H575.7v32.616c-5.639,2.93-17.08,2.051-25.742,1.977-3.845-7.409-2.054-23.862-1.98-34.593h-0.99v-2.965H546v-1.977h-0.99v-1.977h-0.99v-1.976l-1.98-1.977V114.9l-1.981-.988v-1.977l-1.98-1.977v-1.976h-0.99v-1.977H536.1V104.03h-0.99v-1.977l-1.98-.988V99.088l-1.98-1.977V95.135h-0.99V93.158H529.17V91.181h-0.99l-0.99-3.953-1.98-.988V84.263l-1.98-1.977V80.309h-0.99V78.333h-0.99l-0.99-3.953-1.98-.988V71.414c-1.942-3.442-4.328-5.9-4.951-10.872l2.97-.988c0.982-.931,18.02-1.976,20.792-0.988v0.988h2.97v0.988l7.921,12.849v1.977l1.98,0.988v1.977h0.99v1.977l1.98,1.977v1.977l1.981,0.988L555.9,89.2C557.421,92.016,559.933,94.627,560.853,98.1ZM28.189,59.553c17.227-.181,44.09-2.427,56.435,2.965v0.988l5.941,1.977v0.988h1.98l0.99,1.977h1.98l2.97,3.953,1.98,0.988v1.977l1.98,0.988v1.977l1.98,0.988c5.185,9.683,3.987,26.731,3.961,41.511-0.019,10.481-2.536,20.487-6.931,26.686-13.047,18.408-48.629,15.128-80.2,14.826-3.333-6.488-1.98-20.022-1.98-29.651V68.449c1.977-1.7.837-2.307,1.98-3.954h0.99l2.97-3.953h2.97V59.553ZM153.93,103.042c3.626,0.692,15.985,2.526,20.791.988v-0.988l4.951-.989c2.47-4.32,5.533-7.216,2.97-13.837V85.251L176.7,80.309H148.979V81.3l2.97,1.977v1.977h0.99v15.814S153.629,101.255,153.93,103.042Zm-78.217,33.6,0.99-2.965h0.99v-1.976h0.99v-1.977h0.99c1.74-4.6,1.774-32.989,0-37.558h-0.99V90.193a17.241,17.241,0,0,0-5.94-5.93C67.811,79.315,51.595,81.2,42.05,81.3v0.988C47.976,83.873,47,89.768,47,97.112v40.523a21.02,21.02,0,0,1,2.97,2.965H64.822c1.986-1.787,5.442-.746,7.921-1.977v-0.988ZM281.65,117.867L270.759,85.251h-0.99c-0.39,5.378-3.275,9.645-4.95,13.837l-0.99,5.931-6.931,17.79h8.911c2.2-1.952,5.794-.866,8.911-1.977C276.928,120.046,278.865,118.466,281.65,117.867Z" />
</svg>