<svg xmlns="http://www.w3.org/2000/svg" viewBox="0 -0.5 1980 1791" shape-rendering="crispEdges">
<path stroke="#000000" d="M519 94h141M519 95h141M519 96h141M519 97h141M519 98h141M519 99h141M519 100h141M519 101h141M519 102h141M519 103h141M519 104h141M519 105h141M519 106h141M519 107h141M519 108h141M519 109h141M519 110h141M519 111h141M519 112h141M519 113h141M519 114h141M519 115h141M519 116h141M519 117h141M519 118h141M519 119h141M519 120h141M519 121h141M519 122h141M519 123h141M519 124h141M519 125h141M519 126h141M519 127h141M519 128h141M519 129h141M519 130h141M519 131h141M519 132h141M519 133h141M519 134h141M519 135h141M519 136h141M519 137h141M519 138h141M519 139h141M519 140h141M471 141h48M660 141h47M471 142h48M660 142h47M471 143h48M660 143h47M471 144h48M660 144h47M471 145h48M660 145h47M471 146h48M660 146h47M471 147h48M660 147h47M471 148h48M660 148h47M471 149h48M660 149h47M471 150h48M660 150h47M471 151h48M660 151h47M471 152h48M660 152h47M471 153h48M660 153h47M471 154h48M660 154h47M471 155h48M660 155h47M471 156h48M660 156h47M471 157h48M660 157h47M471 158h48M660 158h47M471 159h48M660 159h47M471 160h48M660 160h47M471 161h48M660 161h47M471 162h48M660 162h47M471 163h48M660 163h47M471 164h48M660 164h47M471 165h48M660 165h47M471 166h48M660 166h47M471 167h48M660 167h47M471 168h48M660 168h47M471 169h48M660 169h47M471 170h48M660 170h47M471 171h48M660 171h47M471 172h48M660 172h47M471 173h48M660 173h47M471 174h48M660 174h47M471 175h48M660 175h47M471 176h48M660 176h47M471 177h48M660 177h47M471 178h48M660 178h47M471 179h48M660 179h47M471 180h48M660 180h47M471 181h48M660 181h47M471 182h48M660 182h47M471 183h48M660 183h47M471 184h48M660 184h47M471 185h48M660 185h47M471 186h48M660 186h47M471 187h48M660 187h47M471 188h48M660 188h47M424 189h47M660 189h47M424 190h47M660 190h47M424 191h47M660 191h47M424 192h47M660 192h47M424 193h47M660 193h47M424 194h47M660 194h47M424 195h47M660 195h47M424 196h47M660 196h47M424 197h47M660 197h47M424 198h47M660 198h47M424 199h47M660 199h47M424 200h47M660 200h47M424 201h47M660 201h47M424 202h47M660 202h47M424 203h47M660 203h47M424 204h47M660 204h47M424 205h47M660 205h47M424 206h47M660 206h47M424 207h47M660 207h47M424 208h47M660 208h47M424 209h47M660 209h47M424 210h47M660 210h47M424 211h47M660 211h47M424 212h47M660 212h47M424 213h47M660 213h47M424 214h47M660 214h47M424 215h47M660 215h47M424 216h47M660 216h47M424 217h47M660 217h47M424 218h47M660 218h47M424 219h47M660 219h47M424 220h47M660 220h47M424 221h47M660 221h47M424 222h47M660 222h47M424 223h47M660 223h47M424 224h47M660 224h47M424 225h47M660 225h47M424 226h47M660 226h47M424 227h47M660 227h47M424 228h47M660 228h47M424 229h47M660 229h47M424 230h47M660 230h47M424 231h47M660 231h47M424 232h47M660 232h47M424 233h47M660 233h47M424 234h47M660 234h47M424 235h47M660 235h47M377 236h47M707 236h377M377 237h47M707 237h377M377 238h47M707 238h377M377 239h47M707 239h377M377 240h47M707 240h377M377 241h47M707 241h377M377 242h47M707 242h377M377 243h47M707 243h377M377 244h47M707 244h377M377 245h47M707 245h377M377 246h47M707 246h377M377 247h47M707 247h377M377 248h47M707 248h377M377 249h47M707 249h377M377 250h47M707 250h377M377 251h47M707 251h377M377 252h47M707 252h377M377 253h47M707 253h377M377 254h47M707 254h377M377 255h47M707 255h377M377 256h47M707 256h377M377 257h47M707 257h377M377 258h47M707 258h377M377 259h47M707 259h377M377 260h47M707 260h377M377 261h47M707 261h377M377 262h47M707 262h377M377 263h47M707 263h377M377 264h47M707 264h377M377 265h47M707 265h377M377 266h47M707 266h377M377 267h47M707 267h377M377 268h47M707 268h377M377 269h47M707 269h377M377 270h47M707 270h377M377 271h47M707 271h377M377 272h47M707 272h377M377 273h47M707 273h377M377 274h47M707 274h377M377 275h47M707 275h377M377 276h47M707 276h377M377 277h47M707 277h377M377 278h47M707 278h377M377 279h47M707 279h377M377 280h47M707 280h377M377 281h47M707 281h377M377 282h47M707 282h377M377 283h47M1084 283h189M377 284h47M1084 284h189M377 285h47M1084 285h189M377 286h47M1084 286h189M377 287h47M1084 287h189M377 288h47M1084 288h189M377 289h47M1084 289h189M377 290h47M1084 290h189M377 291h47M1084 291h189M377 292h47M1084 292h189M377 293h47M1084 293h189M377 294h47M1084 294h189M377 295h47M1084 295h189M377 296h47M1084 296h189M377 297h47M1084 297h189M377 298h47M1084 298h189M377 299h47M1084 299h189M377 300h47M1084 300h189M377 301h47M1084 301h189M377 302h47M1084 302h189M377 303h47M1084 303h189M377 304h47M1084 304h189M377 305h47M1084 305h189M377 306h47M1084 306h189M377 307h47M1084 307h189M377 308h47M1084 308h189M377 309h47M1084 309h189M377 310h47M1084 310h189M377 311h47M1084 311h189M377 312h47M1084 312h189M377 313h47M1084 313h189M377 314h47M1084 314h189M377 315h47M1084 315h189M377 316h47M1084 316h189M377 317h47M1084 317h189M377 318h47M1084 318h189M377 319h47M1084 319h189M377 320h47M1084 320h189M377 321h47M1084 321h189M377 322h47M1084 322h189M377 323h47M1084 323h189M377 324h47M1084 324h189M377 325h47M1084 325h189M377 326h47M1084 326h189M377 327h47M1084 327h189M377 328h47M1084 328h189M377 329h47M1084 329h189M377 330h47M1273 330h94M377 331h47M1273 331h94M377 332h47M1273 332h94M377 333h47M1273 333h94M377 334h47M1273 334h94M377 335h47M1273 335h94M377 336h47M1273 336h94M377 337h47M1273 337h94M377 338h47M1273 338h94M377 339h47M1273 339h94M377 340h47M1273 340h94M377 341h47M1273 341h94M377 342h47M1273 342h94M377 343h47M1273 343h94M377 344h47M1273 344h94M377 345h47M1273 345h94M377 346h47M1273 346h94M377 347h47M1273 347h94M377 348h47M1273 348h94M377 349h47M1273 349h94M377 350h47M1273 350h94M377 351h47M1273 351h94M377 352h47M1273 352h94M377 353h47M1273 353h94M377 354h47M1273 354h94M377 355h47M1273 355h94M377 356h47M1273 356h94M377 357h47M1273 357h94M377 358h47M1273 358h94M377 359h47M1273 359h94M377 360h47M1273 360h94M377 361h47M1273 361h94M377 362h47M1273 362h94M377 363h47M1273 363h94M377 364h47M1273 364h94M377 365h47M1273 365h94M377 366h47M1273 366h94M377 367h47M1273 367h94M377 368h47M1273 368h94M377 369h47M1273 369h94M377 370h47M1273 370h94M377 371h47M1273 371h94M377 372h47M1273 372h94M377 373h47M1273 373h94M377 374h47M1273 374h94M377 375h47M1273 375h94M377 376h47M1273 376h94M377 377h47M1367 377h47M377 378h47M1367 378h47M377 379h47M1367 379h47M377 380h47M1367 380h47M377 381h47M1367 381h47M377 382h47M1367 382h47M377 383h47M1367 383h47M377 384h47M1367 384h47M377 385h47M1367 385h47M377 386h47M1367 386h47M377 387h47M1367 387h47M377 388h47M1367 388h47M377 389h47M1367 389h47M377 390h47M1367 390h47M377 391h47M1367 391h47M377 392h47M1367 392h47M377 393h47M1367 393h47M377 394h47M1367 394h47M377 395h47M1367 395h47M377 396h47M1367 396h47M377 397h47M1367 397h47M377 398h47M1367 398h47M377 399h47M1367 399h47M377 400h47M1367 400h47M377 401h47M1367 401h47M377 402h47M1367 402h47M377 403h47M1367 403h47M377 404h47M1367 404h47M377 405h47M1367 405h47M377 406h47M1367 406h47M377 407h47M1367 407h47M377 408h47M1367 408h47M377 409h47M1367 409h47M377 410h47M1367 410h47M377 411h47M1367 411h47M377 412h47M1367 412h47M377 413h47M1367 413h47M377 414h47M1367 414h47M377 415h47M1367 415h47M377 416h47M1367 416h47M377 417h47M1367 417h47M377 418h47M1367 418h47M377 419h47M1367 419h47M377 420h47M1367 420h47M377 421h47M1367 421h47M377 422h47M1367 422h47M377 423h47M1367 423h47M424 424h142M1367 424h47M424 425h142M1367 425h47M424 426h142M1367 426h47M424 427h142M1367 427h47M424 428h142M1367 428h47M424 429h142M1367 429h47M424 430h142M1367 430h47M424 431h142M1367 431h47M424 432h142M1367 432h47M424 433h142M1367 433h47M424 434h142M1367 434h47M424 435h142M1367 435h47M424 436h142M1367 436h47M424 437h142M1367 437h47M424 438h142M1367 438h47M424 439h142M1367 439h47M424 440h142M1367 440h47M424 441h142M1367 441h47M424 442h142M1367 442h47M424 443h142M1367 443h47M424 444h142M1367 444h47M424 445h142M1367 445h47M424 446h142M1367 446h47M424 447h142M1367 447h47M424 448h142M1367 448h47M424 449h142M1367 449h47M424 450h142M1367 450h47M424 451h142M1367 451h47M424 452h142M1367 452h47M424 453h142M1367 453h47M424 454h142M1367 454h47M424 455h142M1367 455h47M424 456h142M1367 456h47M424 457h142M1367 457h47M424 458h142M1367 458h47M424 459h142M1367 459h47M424 460h142M1367 460h47M424 461h142M1367 461h47M424 462h142M1367 462h47M424 463h142M1367 463h47M424 464h142M1367 464h47M424 465h142M1367 465h47M424 466h142M1367 466h47M424 467h142M1367 467h47M424 468h142M1367 468h47M424 469h142M1367 469h47M424 470h142M1367 470h47M519 471h47M1367 471h47M519 472h47M1367 472h47M519 473h47M1367 473h47M519 474h47M1367 474h47M519 475h47M1367 475h47M519 476h47M1367 476h47M519 477h47M1367 477h47M519 478h47M1367 478h47M519 479h47M1367 479h47M519 480h47M1367 480h47M519 481h47M1367 481h47M519 482h47M1367 482h47M519 483h47M1367 483h47M519 484h47M1367 484h47M519 485h47M1367 485h47M519 486h47M1367 486h47M519 487h47M1367 487h47M519 488h47M1367 488h47M519 489h47M1367 489h47M519 490h47M1367 490h47M519 491h47M1367 491h47M519 492h47M1367 492h47M519 493h47M1367 493h47M519 494h47M1367 494h47M519 495h47M1367 495h47M519 496h47M1367 496h47M519 497h47M1367 497h47M519 498h47M1367 498h47M519 499h47M1367 499h47M519 500h47M1367 500h47M519 501h47M1367 501h47M519 502h47M1367 502h47M519 503h47M1367 503h47M519 504h47M1367 504h47M519 505h47M1367 505h47M519 506h47M1367 506h47M519 507h47M1367 507h47M519 508h47M1367 508h47M519 509h47M1367 509h47M519 510h47M1367 510h47M519 511h47M1367 511h47M519 512h47M1367 512h47M519 513h47M1367 513h47M519 514h47M1367 514h47M519 515h47M1367 515h47M519 516h47M1367 516h47M519 517h47M1367 517h47M519 518h47M1367 518h47M519 519h47M1367 519h47M519 520h47M1367 520h47M519 521h47M1367 521h47M519 522h47M1367 522h47M519 523h47M1367 523h47M519 524h47M1367 524h47M519 525h47M1367 525h47M519 526h47M1367 526h47M519 527h47M1367 527h47M519 528h47M1367 528h47M519 529h47M1367 529h47M519 530h47M1367 530h47M519 531h47M1367 531h47M519 532h47M1367 532h47M519 533h47M1367 533h47M519 534h47M1367 534h47M519 535h47M1367 535h47M519 536h47M1367 536h47M519 537h47M1367 537h47M519 538h47M1367 538h47M519 539h47M1367 539h47M519 540h47M1367 540h47M519 541h47M1367 541h47M519 542h47M1367 542h47M519 543h47M1367 543h47M519 544h47M1367 544h47M519 545h47M1367 545h47M519 546h47M1367 546h47M519 547h47M1367 547h47M519 548h47M1367 548h47M519 549h47M1367 549h47M519 550h47M1367 550h47M519 551h47M1367 551h47M519 552h47M1367 552h47M519 553h47M1367 553h47M519 554h47M1367 554h47M519 555h47M1367 555h47M519 556h47M1367 556h47M519 557h47M1367 557h47M519 558h47M1367 558h47M519 559h47M1367 559h47M519 560h47M1367 560h47M519 561h47M1367 561h47M519 562h47M1367 562h47M519 563h47M1367 563h47M519 564h47M1367 564h47M519 565h47M1367 565h47M519 566h47M1367 566h47M519 567h47M1367 567h47M519 568h47M1367 568h47M519 569h47M1367 569h47M519 570h47M1367 570h47M519 571h47M1367 571h47M519 572h47M1367 572h47M519 573h47M1367 573h47M519 574h47M1367 574h47M519 575h47M1367 575h47M519 576h47M1367 576h47M519 577h47M1367 577h47M519 578h47M1367 578h47M519 579h47M1367 579h47M519 580h47M1367 580h47M519 581h47M1367 581h47M519 582h47M1367 582h47M519 583h47M1367 583h47M519 584h47M1367 584h47M519 585h47M1367 585h47M519 586h47M1367 586h47M519 587h47M1367 587h47M519 588h47M1367 588h47M519 589h47M1367 589h47M519 590h47M1367 590h47M519 591h47M1367 591h47M519 592h47M1367 592h47M519 593h47M1367 593h47M519 594h47M1367 594h47M519 595h47M1367 595h47M519 596h47M1367 596h47M519 597h47M1367 597h47M519 598h47M1367 598h47M519 599h47M1367 599h47M519 600h47M1367 600h47M519 601h47M1367 601h47M519 602h47M1367 602h47M519 603h47M1367 603h47M519 604h47M1367 604h47M519 605h47M1367 605h47M519 606h47M1367 606h47M519 607h47M1367 607h47M519 608h47M1367 608h47M519 609h47M1367 609h47M519 610h47M1367 610h47M519 611h47M1367 611h47M519 612h47M1367 612h47M519 613h47M613 613h94M943 613h94M1367 613h47M519 614h47M613 614h94M943 614h94M1367 614h47M519 615h47M613 615h94M943 615h94M1367 615h47M519 616h47M613 616h94M943 616h94M1367 616h47M519 617h47M613 617h94M943 617h94M1367 617h47M519 618h47M613 618h94M943 618h94M1367 618h47M519 619h47M613 619h94M943 619h94M1367 619h47M519 620h47M613 620h94M943 620h94M1367 620h47M519 621h47M613 621h94M943 621h94M1367 621h47M519 622h47M613 622h94M943 622h94M1367 622h47M519 623h47M613 623h94M943 623h94M1367 623h47M519 624h47M613 624h94M943 624h94M1367 624h47M519 625h47M613 625h94M943 625h94M1367 625h47M519 626h47M613 626h94M943 626h94M1367 626h47M519 627h47M613 627h94M943 627h94M1367 627h47M519 628h47M613 628h94M943 628h94M1367 628h47M519 629h47M613 629h94M943 629h94M1367 629h47M519 630h47M613 630h94M943 630h94M1367 630h47M519 631h47M613 631h94M943 631h94M1367 631h47M519 632h47M613 632h94M943 632h94M1367 632h47M519 633h47M613 633h94M943 633h94M1367 633h47M519 634h47M613 634h94M943 634h94M1367 634h47M519 635h47M613 635h94M943 635h94M1367 635h47M519 636h47M613 636h94M943 636h94M1367 636h47M519 637h47M613 637h94M943 637h94M1367 637h47M519 638h47M613 638h94M943 638h94M1367 638h47M519 639h47M613 639h94M943 639h94M1367 639h47M519 640h47M613 640h94M943 640h94M1367 640h47M519 641h47M613 641h94M943 641h94M1367 641h47M519 642h47M613 642h94M943 642h94M1367 642h47M519 643h47M613 643h94M943 643h94M1367 643h47M519 644h47M613 644h94M943 644h94M1367 644h47M519 645h47M613 645h94M943 645h94M1367 645h47M519 646h47M613 646h94M943 646h94M1367 646h47M519 647h47M613 647h94M943 647h94M1367 647h47M519 648h47M613 648h94M943 648h94M1367 648h47M519 649h47M613 649h94M943 649h94M1367 649h47M519 650h47M613 650h94M943 650h94M1367 650h47M519 651h47M613 651h94M943 651h94M1367 651h47M519 652h47M613 652h94M943 652h94M1367 652h47M519 653h47M613 653h94M943 653h94M1367 653h47M519 654h47M613 654h94M943 654h94M1367 654h47M519 655h47M613 655h94M943 655h94M1367 655h47M519 656h47M613 656h94M943 656h94M1367 656h47M519 657h47M613 657h94M943 657h94M1367 657h47M519 658h47M613 658h94M943 658h94M1367 658h47M519 659h47M613 659h94M943 659h94M1367 659h47M519 660h47M613 660h94M943 660h94M1367 660h47M519 661h47M613 661h94M943 661h94M1367 661h47M519 662h47M613 662h94M943 662h94M1367 662h47M519 663h47M613 663h94M943 663h94M1367 663h47M519 664h47M613 664h94M943 664h94M1367 664h47M519 665h47M613 665h94M943 665h94M1367 665h47M519 666h47M613 666h94M943 666h94M1367 666h47M519 667h47M613 667h94M943 667h94M1367 667h47M519 668h47M613 668h94M943 668h94M1367 668h47M519 669h47M613 669h94M943 669h94M1367 669h47M519 670h47M613 670h94M943 670h94M1367 670h47M519 671h47M613 671h94M943 671h94M1367 671h47M519 672h47M613 672h94M943 672h94M1367 672h47M519 673h47M613 673h94M943 673h94M1367 673h47M519 674h47M613 674h94M943 674h94M1367 674h47M519 675h47M613 675h94M943 675h94M1367 675h47M519 676h47M613 676h94M943 676h94M1367 676h47M519 677h47M613 677h94M943 677h94M1367 677h47M519 678h47M613 678h94M943 678h94M1367 678h47M519 679h47M613 679h94M943 679h94M1367 679h47M519 680h47M613 680h94M943 680h94M1367 680h47M519 681h47M613 681h94M943 681h94M1367 681h47M519 682h47M613 682h94M943 682h94M1367 682h47M519 683h47M613 683h94M943 683h94M1367 683h47M519 684h47M613 684h94M943 684h94M1367 684h47M519 685h47M613 685h94M943 685h94M1367 685h47M519 686h47M613 686h94M943 686h94M1367 686h47M519 687h47M613 687h94M943 687h94M1367 687h47M519 688h47M613 688h94M943 688h94M1367 688h47M519 689h47M613 689h94M943 689h94M1367 689h47M519 690h47M613 690h94M943 690h94M1367 690h47M519 691h47M613 691h94M943 691h94M1367 691h47M519 692h47M613 692h94M943 692h94M1367 692h47M519 693h47M613 693h94M943 693h94M1367 693h47M519 694h47M613 694h94M943 694h94M1367 694h47M519 695h47M613 695h94M943 695h94M1367 695h47M519 696h47M613 696h94M943 696h94M1367 696h47M519 697h47M613 697h94M943 697h94M1367 697h47M519 698h47M613 698h94M943 698h94M1367 698h47M519 699h47M613 699h94M943 699h94M1367 699h47M519 700h47M613 700h94M943 700h94M1367 700h47M519 701h47M613 701h94M943 701h94M1367 701h47M519 702h47M613 702h94M943 702h94M1367 702h47M519 703h47M613 703h94M943 703h94M1367 703h47M519 704h47M613 704h94M943 704h94M1367 704h47M519 705h47M613 705h94M943 705h94M1367 705h47M519 706h47M613 706h94M943 706h94M1367 706h47M471 707h95M613 707h94M943 707h94M1367 707h47M471 708h95M613 708h94M943 708h94M1367 708h47M471 709h95M613 709h94M943 709h94M1367 709h47M471 710h95M613 710h94M943 710h94M1367 710h47M471 711h95M613 711h94M943 711h94M1367 711h47M471 712h95M613 712h94M943 712h94M1367 712h47M471 713h95M613 713h94M943 713h94M1367 713h47M471 714h95M613 714h94M943 714h94M1367 714h47M471 715h95M613 715h94M943 715h94M1367 715h47M471 716h95M613 716h94M943 716h94M1367 716h47M471 717h95M613 717h94M943 717h94M1367 717h47M471 718h95M613 718h94M943 718h94M1367 718h47M471 719h95M613 719h94M943 719h94M1367 719h47M471 720h95M613 720h94M943 720h94M1367 720h47M471 721h95M613 721h94M943 721h94M1367 721h47M471 722h95M613 722h94M943 722h94M1367 722h47M471 723h95M613 723h94M943 723h94M1367 723h47M471 724h95M613 724h94M943 724h94M1367 724h47M471 725h95M613 725h94M943 725h94M1367 725h47M471 726h95M613 726h94M943 726h94M1367 726h47M471 727h95M613 727h94M943 727h94M1367 727h47M471 728h95M613 728h94M943 728h94M1367 728h47M471 729h95M613 729h94M943 729h94M1367 729h47M471 730h95M613 730h94M943 730h94M1367 730h47M471 731h95M613 731h94M943 731h94M1367 731h47M471 732h95M613 732h94M943 732h94M1367 732h47M471 733h95M613 733h94M943 733h94M1367 733h47M471 734h95M613 734h94M943 734h94M1367 734h47M471 735h95M613 735h94M943 735h94M1367 735h47M471 736h95M613 736h94M943 736h94M1367 736h47M471 737h95M613 737h94M943 737h94M1367 737h47M471 738h95M613 738h94M943 738h94M1367 738h47M471 739h95M613 739h94M943 739h94M1367 739h47M471 740h95M613 740h94M943 740h94M1367 740h47M471 741h95M613 741h94M943 741h94M1367 741h47M471 742h95M613 742h94M943 742h94M1367 742h47M471 743h95M613 743h94M943 743h94M1367 743h47M471 744h95M613 744h94M943 744h94M1367 744h47M471 745h95M613 745h94M943 745h94M1367 745h47M471 746h95M613 746h94M943 746h94M1367 746h47M471 747h95M613 747h94M943 747h94M1367 747h47M471 748h95M613 748h94M943 748h94M1367 748h47M471 749h95M613 749h94M943 749h94M1367 749h47M471 750h95M613 750h94M943 750h94M1367 750h47M471 751h95M613 751h94M943 751h94M1367 751h47M471 752h95M613 752h94M943 752h94M1367 752h47M471 753h95M613 753h94M943 753h94M1367 753h47M424 754h47M519 754h47M613 754h94M943 754h94M1414 754h48M424 755h47M519 755h47M613 755h94M943 755h94M1414 755h48M424 756h47M519 756h47M613 756h94M943 756h94M1414 756h48M424 757h47M519 757h47M613 757h94M943 757h94M1414 757h48M424 758h47M519 758h47M613 758h94M943 758h94M1414 758h48M424 759h47M519 759h47M613 759h94M943 759h94M1414 759h48M424 760h47M519 760h47M613 760h94M943 760h94M1414 760h48M424 761h47M519 761h47M613 761h94M943 761h94M1414 761h48M424 762h47M519 762h47M613 762h94M943 762h94M1414 762h48M424 763h47M519 763h47M613 763h94M943 763h94M1414 763h48M424 764h47M519 764h47M613 764h94M943 764h94M1414 764h48M424 765h47M519 765h47M613 765h94M943 765h94M1414 765h48M424 766h47M519 766h47M613 766h94M943 766h94M1414 766h48M424 767h47M519 767h47M613 767h94M943 767h94M1414 767h48M424 768h47M519 768h47M613 768h94M943 768h94M1414 768h48M424 769h47M519 769h47M613 769h94M943 769h94M1414 769h48M424 770h47M519 770h47M613 770h94M943 770h94M1414 770h48M424 771h47M519 771h47M613 771h94M943 771h94M1414 771h48M424 772h47M519 772h47M613 772h94M943 772h94M1414 772h48M424 773h47M519 773h47M613 773h94M943 773h94M1414 773h48M424 774h47M519 774h47M613 774h94M943 774h94M1414 774h48M424 775h47M519 775h47M613 775h94M943 775h94M1414 775h48M424 776h47M519 776h47M613 776h94M943 776h94M1414 776h48M424 777h47M519 777h47M613 777h94M943 777h94M1414 777h48M424 778h47M519 778h47M613 778h94M943 778h94M1414 778h48M424 779h47M519 779h47M613 779h94M943 779h94M1414 779h48M424 780h47M519 780h47M613 780h94M943 780h94M1414 780h48M424 781h47M519 781h47M613 781h94M943 781h94M1414 781h48M424 782h47M519 782h47M613 782h94M943 782h94M1414 782h48M424 783h47M519 783h47M613 783h94M943 783h94M1414 783h48M424 784h47M519 784h47M613 784h94M943 784h94M1414 784h48M424 785h47M519 785h47M613 785h94M943 785h94M1414 785h48M424 786h47M519 786h47M613 786h94M943 786h94M1414 786h48M424 787h47M519 787h47M613 787h94M943 787h94M1414 787h48M424 788h47M519 788h47M613 788h94M943 788h94M1414 788h48M424 789h47M519 789h47M613 789h94M943 789h94M1414 789h48M424 790h47M519 790h47M613 790h94M943 790h94M1414 790h48M424 791h47M519 791h47M613 791h94M943 791h94M1414 791h48M424 792h47M519 792h47M613 792h94M943 792h94M1414 792h48M424 793h47M519 793h47M613 793h94M943 793h94M1414 793h48M424 794h47M519 794h47M613 794h94M943 794h94M1414 794h48M424 795h47M519 795h47M613 795h94M943 795h94M1414 795h48M424 796h47M519 796h47M613 796h94M943 796h94M1414 796h48M424 797h47M519 797h47M613 797h94M943 797h94M1414 797h48M424 798h47M519 798h47M613 798h94M943 798h94M1414 798h48M424 799h47M519 799h47M613 799h94M943 799h94M1414 799h48M424 800h47M519 800h47M613 800h94M943 800h94M1414 800h48M424 801h47M519 801h47M1414 801h48M424 802h47M519 802h47M1414 802h48M424 803h47M519 803h47M1414 803h48M424 804h47M519 804h47M1414 804h48M424 805h47M519 805h47M1414 805h48M424 806h47M519 806h47M1414 806h48M424 807h47M519 807h47M1414 807h48M424 808h47M519 808h47M1414 808h48M424 809h47M519 809h47M1414 809h48M424 810h47M519 810h47M1414 810h48M424 811h47M519 811h47M1414 811h48M424 812h47M519 812h47M1414 812h48M424 813h47M519 813h47M1414 813h48M424 814h47M519 814h47M1414 814h48M424 815h47M519 815h47M1414 815h48M424 816h47M519 816h47M1414 816h48M424 817h47M519 817h47M1414 817h48M424 818h47M519 818h47M1414 818h48M424 819h47M519 819h47M1414 819h48M424 820h47M519 820h47M1414 820h48M424 821h47M519 821h47M1414 821h48M424 822h47M519 822h47M1414 822h48M424 823h47M519 823h47M1414 823h48M424 824h47M519 824h47M1414 824h48M424 825h47M519 825h47M1414 825h48M424 826h47M519 826h47M1414 826h48M424 827h47M519 827h47M1414 827h48M424 828h47M519 828h47M1414 828h48M424 829h47M519 829h47M1414 829h48M424 830h47M519 830h47M1414 830h48M424 831h47M519 831h47M1414 831h48M424 832h47M519 832h47M1414 832h48M424 833h47M519 833h47M1414 833h48M424 834h47M519 834h47M1414 834h48M424 835h47M519 835h47M1414 835h48M424 836h47M519 836h47M1414 836h48M424 837h47M519 837h47M1414 837h48M424 838h47M519 838h47M1414 838h48M424 839h47M519 839h47M1414 839h48M424 840h47M519 840h47M1414 840h48M424 841h47M519 841h47M1414 841h48M424 842h47M519 842h47M1414 842h48M424 843h47M519 843h47M1414 843h48M424 844h47M519 844h47M1414 844h48M424 845h47M519 845h47M1414 845h48M424 846h47M519 846h47M1414 846h48M424 847h47M519 847h47M1414 847h48M424 848h47M519 848h47M1414 848h48M424 849h47M519 849h47M1414 849h48M424 850h47M519 850h47M1414 850h48M424 851h47M519 851h47M1414 851h48M424 852h47M519 852h47M1414 852h48M424 853h47M519 853h47M1414 853h48M424 854h47M519 854h47M1414 854h48M424 855h47M519 855h47M1414 855h48M424 856h47M519 856h47M1414 856h48M424 857h47M519 857h47M1414 857h48M424 858h47M519 858h47M1414 858h48M424 859h47M519 859h47M1414 859h48M424 860h47M519 860h47M1414 860h48M424 861h47M519 861h47M1414 861h48M424 862h47M519 862h47M1414 862h48M424 863h47M519 863h47M1414 863h48M424 864h47M519 864h47M1414 864h48M424 865h47M519 865h47M1414 865h48M424 866h47M519 866h47M1414 866h48M424 867h47M519 867h47M1414 867h48M424 868h47M519 868h47M1414 868h48M424 869h47M519 869h47M1414 869h48M424 870h47M519 870h47M1414 870h48M424 871h47M519 871h47M1414 871h48M424 872h47M519 872h47M1414 872h48M424 873h47M519 873h47M1414 873h48M424 874h47M519 874h47M1414 874h48M424 875h47M519 875h47M1414 875h48M424 876h47M519 876h47M1414 876h48M424 877h47M519 877h47M1414 877h48M424 878h47M519 878h47M1414 878h48M424 879h47M519 879h47M1414 879h48M424 880h47M519 880h47M1414 880h48M424 881h47M519 881h47M1414 881h48M424 882h47M519 882h47M1414 882h48M424 883h47M519 883h47M1414 883h48M424 884h47M519 884h47M1414 884h48M424 885h47M519 885h47M1414 885h48M424 886h47M519 886h47M1414 886h48M424 887h47M519 887h47M1414 887h48M424 888h47M519 888h47M1414 888h48M424 889h47M519 889h47M1414 889h48M424 890h47M519 890h47M1414 890h48M424 891h47M519 891h47M1414 891h48M424 892h47M519 892h47M1414 892h48M424 893h47M519 893h47M1414 893h48M424 894h47M519 894h47M1414 894h48M471 895h48M1414 895h48M471 896h48M1414 896h48M471 897h48M1414 897h48M471 898h48M1414 898h48M471 899h48M1414 899h48M471 900h48M1414 900h48M471 901h48M1414 901h48M471 902h48M1414 902h48M471 903h48M1414 903h48M471 904h48M1414 904h48M471 905h48M1414 905h48M471 906h48M1414 906h48M471 907h48M1414 907h48M471 908h48M1414 908h48M471 909h48M1414 909h48M471 910h48M1414 910h48M471 911h48M1414 911h48M471 912h48M1414 912h48M471 913h48M1414 913h48M471 914h48M1414 914h48M471 915h48M1414 915h48M471 916h48M1414 916h48M471 917h48M1414 917h48M471 918h48M1414 918h48M471 919h48M1414 919h48M471 920h48M1414 920h48M471 921h48M1414 921h48M471 922h48M1414 922h48M471 923h48M1414 923h48M471 924h48M1414 924h48M471 925h48M1414 925h48M471 926h48M1414 926h48M471 927h48M1414 927h48M471 928h48M1414 928h48M471 929h48M1414 929h48M471 930h48M1414 930h48M471 931h48M1414 931h48M471 932h48M1414 932h48M471 933h48M1414 933h48M471 934h48M1414 934h48M471 935h48M1414 935h48M471 936h48M1414 936h48M471 937h48M1414 937h48M471 938h48M1414 938h48M471 939h48M1414 939h48M471 940h48M1414 940h48M471 941h48M1414 941h48M471 942h48M1414 942h48M1320 943h94M1320 944h94M1320 945h94M1320 946h94M1320 947h94M1320 948h94M1320 949h94M1320 950h94M1320 951h94M1320 952h94M1320 953h94M1320 954h94M1320 955h94M1320 956h94M1320 957h94M1320 958h94M1320 959h94M1320 960h94M1320 961h94M1320 962h94M1320 963h94M1320 964h94M1320 965h94M1320 966h94M1320 967h94M1320 968h94M1320 969h94M1320 970h94M1320 971h94M1320 972h94M1320 973h94M1320 974h94M1320 975h94M1320 976h94M1320 977h94M1320 978h94M1320 979h94M1320 980h94M1320 981h94M1320 982h94M1320 983h94M1320 984h94M1320 985h94M1320 986h94M1320 987h94M1320 988h94M1320 989h94" />
<path stroke="#472422" d="M519 141h47M519 142h47M519 143h47M519 144h47M519 145h47M519 146h47M519 147h47M519 148h47M519 149h47M519 150h47M519 151h47M519 152h47M519 153h47M519 154h47M519 155h47M519 156h47M519 157h47M519 158h47M519 159h47M519 160h47M519 161h47M519 162h47M519 163h47M519 164h47M519 165h47M519 166h47M519 167h47M519 168h47M519 169h47M519 170h47M519 171h47M519 172h47M519 173h47M519 174h47M519 175h47M519 176h47M519 177h47M519 178h47M519 179h47M519 180h47M519 181h47M519 182h47M519 183h47M519 184h47M519 185h47M519 186h47M519 187h47M519 188h47M471 189h48M471 190h48M471 191h48M471 192h48M471 193h48M471 194h48M471 195h48M471 196h48M471 197h48M471 198h48M471 199h48M471 200h48M471 201h48M471 202h48M471 203h48M471 204h48M471 205h48M471 206h48M471 207h48M471 208h48M471 209h48M471 210h48M471 211h48M471 212h48M471 213h48M471 214h48M471 215h48M471 216h48M471 217h48M471 218h48M471 219h48M471 220h48M471 221h48M471 222h48M471 223h48M471 224h48M471 225h48M471 226h48M471 227h48M471 228h48M471 229h48M471 230h48M471 231h48M471 232h48M471 233h48M471 234h48M471 235h48M424 236h47M424 237h47M424 238h47M424 239h47M424 240h47M424 241h47M424 242h47M424 243h47M424 244h47M424 245h47M424 246h47M424 247h47M424 248h47M424 249h47M424 250h47M424 251h47M424 252h47M424 253h47M424 254h47M424 255h47M424 256h47M424 257h47M424 258h47M424 259h47M424 260h47M424 261h47M424 262h47M424 263h47M424 264h47M424 265h47M424 266h47M424 267h47M424 268h47M424 269h47M424 270h47M424 271h47M424 272h47M424 273h47M424 274h47M424 275h47M424 276h47M424 277h47M424 278h47M424 279h47M424 280h47M424 281h47M424 282h47M424 283h47M424 284h47M424 285h47M424 286h47M424 287h47M424 288h47M424 289h47M424 290h47M424 291h47M424 292h47M424 293h47M424 294h47M424 295h47M424 296h47M424 297h47M424 298h47M424 299h47M424 300h47M424 301h47M424 302h47M424 303h47M424 304h47M424 305h47M424 306h47M424 307h47M424 308h47M424 309h47M424 310h47M424 311h47M424 312h47M424 313h47M424 314h47M424 315h47M424 316h47M424 317h47M424 318h47M424 319h47M424 320h47M424 321h47M424 322h47M424 323h47M424 324h47M424 325h47M424 326h47M424 327h47M424 328h47M424 329h47M424 330h47M424 331h47M424 332h47M424 333h47M424 334h47M424 335h47M424 336h47M424 337h47M424 338h47M424 339h47M424 340h47M424 341h47M424 342h47M424 343h47M424 344h47M424 345h47M424 346h47M424 347h47M424 348h47M424 349h47M424 350h47M424 351h47M424 352h47M424 353h47M424 354h47M424 355h47M424 356h47M424 357h47M424 358h47M424 359h47M424 360h47M424 361h47M424 362h47M424 363h47M424 364h47M424 365h47M424 366h47M424 367h47M424 368h47M424 369h47M424 370h47M424 371h47M424 372h47M424 373h47M424 374h47M424 375h47M424 376h47M424 377h189M424 378h189M424 379h189M424 380h189M424 381h189M424 382h189M424 383h189M424 384h189M424 385h189M424 386h189M424 387h189M424 388h189M424 389h189M424 390h189M424 391h189M424 392h189M424 393h189M424 394h189M424 395h189M424 396h189M424 397h189M424 398h189M424 399h189M424 400h189M424 401h189M424 402h189M424 403h189M424 404h189M424 405h189M424 406h189M424 407h189M424 408h189M424 409h189M424 410h189M424 411h189M424 412h189M424 413h189M424 414h189M424 415h189M424 416h189M424 417h189M424 418h189M424 419h189M424 420h189M424 421h189M424 422h189M424 423h189M566 424h660M566 425h660M566 426h660M566 427h660M566 428h660M566 429h660M566 430h660M566 431h660M566 432h660M566 433h660M566 434h660M566 435h660M566 436h660M566 437h660M566 438h660M566 439h660M566 440h660M566 441h660M566 442h660M566 443h660M566 444h660M566 445h660M566 446h660M566 447h660M566 448h660M566 449h660M566 450h660M566 451h660M566 452h660M566 453h660M566 454h660M566 455h660M566 456h660M566 457h660M566 458h660M566 459h660M566 460h660M566 461h660M566 462h660M566 463h660M566 464h660M566 465h660M566 466h660M566 467h660M566 468h660M566 469h660M566 470h660M519 895h47M1273 895h47M519 896h47M1273 896h47M519 897h47M1273 897h47M519 898h47M1273 898h47M519 899h47M1273 899h47M519 900h47M1273 900h47M519 901h47M1273 901h47M519 902h47M1273 902h47M519 903h47M1273 903h47M519 904h47M1273 904h47M519 905h47M1273 905h47M519 906h47M1273 906h47M519 907h47M1273 907h47M519 908h47M1273 908h47M519 909h47M1273 909h47M519 910h47M1273 910h47M519 911h47M1273 911h47M519 912h47M1273 912h47M519 913h47M1273 913h47M519 914h47M1273 914h47M519 915h47M1273 915h47M519 916h47M1273 916h47M519 917h47M1273 917h47M519 918h47M1273 918h47M519 919h47M1273 919h47M519 920h47M1273 920h47M519 921h47M1273 921h47M519 922h47M1273 922h47M519 923h47M1273 923h47M519 924h47M1273 924h47M519 925h47M1273 925h47M519 926h47M1273 926h47M519 927h47M1273 927h47M519 928h47M1273 928h47M519 929h47M1273 929h47M519 930h47M1273 930h47M519 931h47M1273 931h47M519 932h47M1273 932h47M519 933h47M1273 933h47M519 934h47M1273 934h47M519 935h47M1273 935h47M519 936h47M1273 936h47M519 937h47M1273 937h47M519 938h47M1273 938h47M519 939h47M1273 939h47M519 940h47M1273 940h47M519 941h47M1273 941h47M519 942h47M1273 942h47M519 943h47M1273 943h47M519 944h47M1273 944h47M519 945h47M1273 945h47M519 946h47M1273 946h47M519 947h47M1273 947h47M519 948h47M1273 948h47M519 949h47M1273 949h47M519 950h47M1273 950h47M519 951h47M1273 951h47M519 952h47M1273 952h47M519 953h47M1273 953h47M519 954h47M1273 954h47M519 955h47M1273 955h47M519 956h47M1273 956h47M519 957h47M1273 957h47M519 958h47M1273 958h47M519 959h47M1273 959h47M519 960h47M1273 960h47M519 961h47M1273 961h47M519 962h47M1273 962h47M519 963h47M1273 963h47M519 964h47M1273 964h47M519 965h47M1273 965h47M519 966h47M1273 966h47M519 967h47M1273 967h47M519 968h47M1273 968h47M519 969h47M1273 969h47M519 970h47M1273 970h47M519 971h47M1273 971h47M519 972h47M1273 972h47M519 973h47M1273 973h47M519 974h47M1273 974h47M519 975h47M1273 975h47M519 976h47M1273 976h47M519 977h47M1273 977h47M519 978h47M1273 978h47M519 979h47M1273 979h47M519 980h47M1273 980h47M519 981h47M1273 981h47M519 982h47M1273 982h47M519 983h47M1273 983h47M519 984h47M1273 984h47M519 985h47M1273 985h47M519 986h47M1273 986h47M519 987h47M1273 987h47M519 988h47M1273 988h47M519 989h47M1273 989h47M519 990h94M1226 990h94M519 991h94M1226 991h94M519 992h94M1226 992h94M519 993h94M1226 993h94M519 994h94M1226 994h94M519 995h94M1226 995h94M519 996h94M1226 996h94M519 997h94M1226 997h94M519 998h94M1226 998h94M519 999h94M1226 999h94M519 1000h94M1226 1000h94M519 1001h94M1226 1001h94M519 1002h94M1226 1002h94M519 1003h94M1226 1003h94M519 1004h94M1226 1004h94M519 1005h94M1226 1005h94M519 1006h94M1226 1006h94M519 1007h94M1226 1007h94M519 1008h94M1226 1008h94M519 1009h94M1226 1009h94M519 1010h94M1226 1010h94M519 1011h94M1226 1011h94M519 1012h94M1226 1012h94M519 1013h94M1226 1013h94M519 1014h94M1226 1014h94M519 1015h94M1226 1015h94M519 1016h94M1226 1016h94M519 1017h94M1226 1017h94M519 1018h94M1226 1018h94M519 1019h94M1226 1019h94M519 1020h94M1226 1020h94M519 1021h94M1226 1021h94M519 1022h94M1226 1022h94M519 1023h94M1226 1023h94M519 1024h94M1226 1024h94M519 1025h94M1226 1025h94M519 1026h94M1226 1026h94M519 1027h94M1226 1027h94M519 1028h94M1226 1028h94M519 1029h94M1226 1029h94M519 1030h94M1226 1030h94M519 1031h94M1226 1031h94M519 1032h94M1226 1032h94M519 1033h94M1226 1033h94M519 1034h94M1226 1034h94M519 1035h94M1226 1035h94M519 1036h94M1226 1036h94M566 1037h707M566 1038h707M566 1039h707M566 1040h707M566 1041h707M566 1042h707M566 1043h707M566 1044h707M566 1045h707M566 1046h707M566 1047h707M566 1048h707M566 1049h707M566 1050h707M566 1051h707M566 1052h707M566 1053h707M566 1054h707M566 1055h707M566 1056h707M566 1057h707M566 1058h707M566 1059h707M566 1060h707M566 1061h707M566 1062h707M566 1063h707M566 1064h707M566 1065h707M566 1066h707M566 1067h707M566 1068h707M566 1069h707M566 1070h707M566 1071h707M566 1072h707M566 1073h707M566 1074h707M566 1075h707M566 1076h707M566 1077h707M566 1078h707M566 1079h707M566 1080h707M566 1081h707M566 1082h707M566 1083h707" />
<path stroke="#825653" d="M566 141h94M566 142h94M566 143h94M566 144h94M566 145h94M566 146h94M566 147h94M566 148h94M566 149h94M566 150h94M566 151h94M566 152h94M566 153h94M566 154h94M566 155h94M566 156h94M566 157h94M566 158h94M566 159h94M566 160h94M566 161h94M566 162h94M566 163h94M566 164h94M566 165h94M566 166h94M566 167h94M566 168h94M566 169h94M566 170h94M566 171h94M566 172h94M566 173h94M566 174h94M566 175h94M566 176h94M566 177h94M566 178h94M566 179h94M566 180h94M566 181h94M566 182h94M566 183h94M566 184h94M566 185h94M566 186h94M566 187h94M566 188h94M519 189h141M519 190h141M519 191h141M519 192h141M519 193h141M519 194h141M519 195h141M519 196h141M519 197h141M519 198h141M519 199h141M519 200h141M519 201h141M519 202h141M519 203h141M519 204h141M519 205h141M519 206h141M519 207h141M519 208h141M519 209h141M519 210h141M519 211h141M519 212h141M519 213h141M519 214h141M519 215h141M519 216h141M519 217h141M519 218h141M519 219h141M519 220h141M519 221h141M519 222h141M519 223h141M519 224h141M519 225h141M519 226h141M519 227h141M519 228h141M519 229h141M519 230h141M519 231h141M519 232h141M519 233h141M519 234h141M519 235h141M471 236h236M471 237h236M471 238h236M471 239h236M471 240h236M471 241h236M471 242h236M471 243h236M471 244h236M471 245h236M471 246h236M471 247h236M471 248h236M471 249h236M471 250h236M471 251h236M471 252h236M471 253h236M471 254h236M471 255h236M471 256h236M471 257h236M471 258h236M471 259h236M471 260h236M471 261h236M471 262h236M471 263h236M471 264h236M471 265h236M471 266h236M471 267h236M471 268h236M471 269h236M471 270h236M471 271h236M471 272h236M471 273h236M471 274h236M471 275h236M471 276h236M471 277h236M471 278h236M471 279h236M471 280h236M471 281h236M471 282h236M471 283h613M471 284h613M471 285h613M471 286h613M471 287h613M471 288h613M471 289h613M471 290h613M471 291h613M471 292h613M471 293h613M471 294h613M471 295h613M471 296h613M471 297h613M471 298h613M471 299h613M471 300h613M471 301h613M471 302h613M471 303h613M471 304h613M471 305h613M471 306h613M471 307h613M471 308h613M471 309h613M471 310h613M471 311h613M471 312h613M471 313h613M471 314h613M471 315h613M471 316h613M471 317h613M471 318h613M471 319h613M471 320h613M471 321h613M471 322h613M471 323h613M471 324h613M471 325h613M471 326h613M471 327h613M471 328h613M471 329h613M471 330h802M471 331h802M471 332h802M471 333h802M471 334h802M471 335h802M471 336h802M471 337h802M471 338h802M471 339h802M471 340h802M471 341h802M471 342h802M471 343h802M471 344h802M471 345h802M471 346h802M471 347h802M471 348h802M471 349h802M471 350h802M471 351h802M471 352h802M471 353h802M471 354h802M471 355h802M471 356h802M471 357h802M471 358h802M471 359h802M471 360h802M471 361h802M471 362h802M471 363h802M471 364h802M471 365h802M471 366h802M471 367h802M471 368h802M471 369h802M471 370h802M471 371h802M471 372h802M471 373h802M471 374h802M471 375h802M471 376h802M613 377h754M613 378h754M613 379h754M613 380h754M613 381h754M613 382h754M613 383h754M613 384h754M613 385h754M613 386h754M613 387h754M613 388h754M613 389h754M613 390h754M613 391h754M613 392h754M613 393h754M613 394h754M613 395h754M613 396h754M613 397h754M613 398h754M613 399h754M613 400h754M613 401h754M613 402h754M613 403h754M613 404h754M613 405h754M613 406h754M613 407h754M613 408h754M613 409h754M613 410h754M613 411h754M613 412h754M613 413h754M613 414h754M613 415h754M613 416h754M613 417h754M613 418h754M613 419h754M613 420h754M613 421h754M613 422h754M613 423h754M1226 424h141M1226 425h141M1226 426h141M1226 427h141M1226 428h141M1226 429h141M1226 430h141M1226 431h141M1226 432h141M1226 433h141M1226 434h141M1226 435h141M1226 436h141M1226 437h141M1226 438h141M1226 439h141M1226 440h141M1226 441h141M1226 442h141M1226 443h141M1226 444h141M1226 445h141M1226 446h141M1226 447h141M1226 448h141M1226 449h141M1226 450h141M1226 451h141M1226 452h141M1226 453h141M1226 454h141M1226 455h141M1226 456h141M1226 457h141M1226 458h141M1226 459h141M1226 460h141M1226 461h141M1226 462h141M1226 463h141M1226 464h141M1226 465h141M1226 466h141M1226 467h141M1226 468h141M1226 469h141M1226 470h141M1273 707h47M1273 708h47M1273 709h47M1273 710h47M1273 711h47M1273 712h47M1273 713h47M1273 714h47M1273 715h47M1273 716h47M1273 717h47M1273 718h47M1273 719h47M1273 720h47M1273 721h47M1273 722h47M1273 723h47M1273 724h47M1273 725h47M1273 726h47M1273 727h47M1273 728h47M1273 729h47M1273 730h47M1273 731h47M1273 732h47M1273 733h47M1273 734h47M1273 735h47M1273 736h47M1273 737h47M1273 738h47M1273 739h47M1273 740h47M1273 741h47M1273 742h47M1273 743h47M1273 744h47M1273 745h47M1273 746h47M1273 747h47M1273 748h47M1273 749h47M1273 750h47M1273 751h47M1273 752h47M1273 753h47M1226 754h94M1226 755h94M1226 756h94M1226 757h94M1226 758h94M1226 759h94M1226 760h94M1226 761h94M1226 762h94M1226 763h94M1226 764h94M1226 765h94M1226 766h94M1226 767h94M1226 768h94M1226 769h94M1226 770h94M1226 771h94M1226 772h94M1226 773h94M1226 774h94M1226 775h94M1226 776h94M1226 777h94M1226 778h94M1226 779h94M1226 780h94M1226 781h94M1226 782h94M1226 783h94M1226 784h94M1226 785h94M1226 786h94M1226 787h94M1226 788h94M1226 789h94M1226 790h94M1226 791h94M1226 792h94M1226 793h94M1226 794h94M1226 795h94M1226 796h94M1226 797h94M1226 798h94M1226 799h94M1226 800h94M1226 801h94M1226 802h94M1226 803h94M1226 804h94M1226 805h94M1226 806h94M1226 807h94M1226 808h94M1226 809h94M1226 810h94M1226 811h94M1226 812h94M1226 813h94M1226 814h94M1226 815h94M1226 816h94M1226 817h94M1226 818h94M1226 819h94M1226 820h94M1226 821h94M1226 822h94M1226 823h94M1226 824h94M1226 825h94M1226 826h94M1226 827h94M1226 828h94M1226 829h94M1226 830h94M1226 831h94M1226 832h94M1226 833h94M1226 834h94M1226 835h94M1226 836h94M1226 837h94M1226 838h94M1226 839h94M1226 840h94M1226 841h94M1226 842h94M1226 843h94M1226 844h94M1226 845h94M1226 846h94M1226 847h94M660 848h283M1226 848h94M660 849h283M1226 849h94M660 850h283M1226 850h94M660 851h283M1226 851h94M660 852h283M1226 852h94M660 853h283M1226 853h94M660 854h283M1226 854h94M660 855h283M1226 855h94M660 856h283M1226 856h94M660 857h283M1226 857h94M660 858h283M1226 858h94M660 859h283M1226 859h94M660 860h283M1226 860h94M660 861h283M1226 861h94M660 862h283M1226 862h94M660 863h283M1226 863h94M660 864h283M1226 864h94M660 865h283M1226 865h94M660 866h283M1226 866h94M660 867h283M1226 867h94M660 868h283M1226 868h94M660 869h283M1226 869h94M660 870h283M1226 870h94M660 871h283M1226 871h94M660 872h283M1226 872h94M660 873h283M1226 873h94M660 874h283M1226 874h94M660 875h283M1226 875h94M660 876h283M1226 876h94M660 877h283M1226 877h94M660 878h283M1226 878h94M660 879h283M1226 879h94M660 880h283M1226 880h94M660 881h283M1226 881h94M660 882h283M1226 882h94M660 883h283M1226 883h94M660 884h283M1226 884h94M660 885h283M1226 885h94M660 886h283M1226 886h94M660 887h283M1226 887h94M660 888h283M1226 888h94M660 889h283M1226 889h94M660 890h283M1226 890h94M660 891h283M1226 891h94M660 892h283M1226 892h94M660 893h283M1226 893h94M660 894h283M1226 894h94M613 895h94M896 895h94M1226 895h47M613 896h94M896 896h94M1226 896h47M613 897h94M896 897h94M1226 897h47M613 898h94M896 898h94M1226 898h47M613 899h94M896 899h94M1226 899h47M613 900h94M896 900h94M1226 900h47M613 901h94M896 901h94M1226 901h47M613 902h94M896 902h94M1226 902h47M613 903h94M896 903h94M1226 903h47M613 904h94M896 904h94M1226 904h47M613 905h94M896 905h94M1226 905h47M613 906h94M896 906h94M1226 906h47M613 907h94M896 907h94M1226 907h47M613 908h94M896 908h94M1226 908h47M613 909h94M896 909h94M1226 909h47M613 910h94M896 910h94M1226 910h47M613 911h94M896 911h94M1226 911h47M613 912h94M896 912h94M1226 912h47M613 913h94M896 913h94M1226 913h47M613 914h94M896 914h94M1226 914h47M613 915h94M896 915h94M1226 915h47M613 916h94M896 916h94M1226 916h47M613 917h94M896 917h94M1226 917h47M613 918h94M896 918h94M1226 918h47M613 919h94M896 919h94M1226 919h47M613 920h94M896 920h94M1226 920h47M613 921h94M896 921h94M1226 921h47M613 922h94M896 922h94M1226 922h47M613 923h94M896 923h94M1226 923h47M613 924h94M896 924h94M1226 924h47M613 925h94M896 925h94M1226 925h47M613 926h94M896 926h94M1226 926h47M613 927h94M896 927h94M1226 927h47M613 928h94M896 928h94M1226 928h47M613 929h94M896 929h94M1226 929h47M613 930h94M896 930h94M1226 930h47M613 931h94M896 931h94M1226 931h47M613 932h94M896 932h94M1226 932h47M613 933h94M896 933h94M1226 933h47M613 934h94M896 934h94M1226 934h47M613 935h94M896 935h94M1226 935h47M613 936h94M896 936h94M1226 936h47M613 937h94M896 937h94M1226 937h47M613 938h94M896 938h94M1226 938h47M613 939h94M896 939h94M1226 939h47M613 940h94M896 940h94M1226 940h47M613 941h94M896 941h94M1226 941h47M613 942h94M896 942h94M1226 942h47M566 943h141M754 943h95M896 943h377M566 944h141M754 944h95M896 944h377M566 945h141M754 945h95M896 945h377M566 946h141M754 946h95M896 946h377M566 947h141M754 947h95M896 947h377M566 948h141M754 948h95M896 948h377M566 949h141M754 949h95M896 949h377M566 950h141M754 950h95M896 950h377M566 951h141M754 951h95M896 951h377M566 952h141M754 952h95M896 952h377M566 953h141M754 953h95M896 953h377M566 954h141M754 954h95M896 954h377M566 955h141M754 955h95M896 955h377M566 956h141M754 956h95M896 956h377M566 957h141M754 957h95M896 957h377M566 958h141M754 958h95M896 958h377M566 959h141M754 959h95M896 959h377M566 960h141M754 960h95M896 960h377M566 961h141M754 961h95M896 961h377M566 962h141M754 962h95M896 962h377M566 963h141M754 963h95M896 963h377M566 964h141M754 964h95M896 964h377M566 965h141M754 965h95M896 965h377M566 966h141M754 966h95M896 966h377M566 967h141M754 967h95M896 967h377M566 968h141M754 968h95M896 968h377M566 969h141M754 969h95M896 969h377M566 970h141M754 970h95M896 970h377M566 971h141M754 971h95M896 971h377M566 972h141M754 972h95M896 972h377M566 973h141M754 973h95M896 973h377M566 974h141M754 974h95M896 974h377M566 975h141M754 975h95M896 975h377M566 976h141M754 976h95M896 976h377M566 977h141M754 977h95M896 977h377M566 978h141M754 978h95M896 978h377M566 979h141M754 979h95M896 979h377M566 980h141M754 980h95M896 980h377M566 981h141M754 981h95M896 981h377M566 982h141M754 982h95M896 982h377M566 983h141M754 983h95M896 983h377M566 984h141M754 984h95M896 984h377M566 985h141M754 985h95M896 985h377M566 986h141M754 986h95M896 986h377M566 987h141M754 987h95M896 987h377M566 988h141M754 988h95M896 988h377M566 989h141M754 989h95M896 989h377M613 990h613M613 991h613M613 992h613M613 993h613M613 994h613M613 995h613M613 996h613M613 997h613M613 998h613M613 999h613M613 1000h613M613 1001h613M613 1002h613M613 1003h613M613 1004h613M613 1005h613M613 1006h613M613 1007h613M613 1008h613M613 1009h613M613 1010h613M613 1011h613M613 1012h613M613 1013h613M613 1014h613M613 1015h613M613 1016h613M613 1017h613M613 1018h613M613 1019h613M613 1020h613M613 1021h613M613 1022h613M613 1023h613M613 1024h613M613 1025h613M613 1026h613M613 1027h613M613 1028h613M613 1029h613M613 1030h613M613 1031h613M613 1032h613M613 1033h613M613 1034h613M613 1035h613M613 1036h613" />
<path stroke="#c7a199" d="M566 471h613M566 472h613M566 473h613M566 474h613M566 475h613M566 476h613M566 477h613M566 478h613M566 479h613M566 480h613M566 481h613M566 482h613M566 483h613M566 484h613M566 485h613M566 486h613M566 487h613M566 488h613M566 489h613M566 490h613M566 491h613M566 492h613M566 493h613M566 494h613M566 495h613M566 496h613M566 497h613M566 498h613M566 499h613M566 500h613M566 501h613M566 502h613M566 503h613M566 504h613M566 505h613M566 506h613M566 507h613M566 508h613M566 509h613M566 510h613M566 511h613M566 512h613M566 513h613M566 514h613M566 515h613M566 516h613M566 517h613M566 518h47M566 519h47M566 520h47M566 521h47M566 522h47M566 523h47M566 524h47M566 525h47M566 526h47M566 527h47M566 528h47M566 529h47M566 530h47M566 531h47M566 532h47M566 533h47M566 534h47M566 535h47M566 536h47M566 537h47M566 538h47M566 539h47M566 540h47M566 541h47M566 542h47M566 543h47M566 544h47M566 545h47M566 546h47M566 547h47M566 548h47M566 549h47M566 550h47M566 551h47M566 552h47M566 553h47M566 554h47M566 555h47M566 556h47M566 557h47M566 558h47M566 559h47M566 560h47M566 561h47M566 562h47M566 563h47M566 564h47M566 565h47M471 801h48M1179 801h47M1320 801h47M471 802h48M1179 802h47M1320 802h47M471 803h48M1179 803h47M1320 803h47M471 804h48M1179 804h47M1320 804h47M471 805h48M1179 805h47M1320 805h47M471 806h48M1179 806h47M1320 806h47M471 807h48M1179 807h47M1320 807h47M471 808h48M1179 808h47M1320 808h47M471 809h48M1179 809h47M1320 809h47M471 810h48M1179 810h47M1320 810h47M471 811h48M1179 811h47M1320 811h47M471 812h48M1179 812h47M1320 812h47M471 813h48M1179 813h47M1320 813h47M471 814h48M1179 814h47M1320 814h47M471 815h48M1179 815h47M1320 815h47M471 816h48M1179 816h47M1320 816h47M471 817h48M1179 817h47M1320 817h47M471 818h48M1179 818h47M1320 818h47M471 819h48M1179 819h47M1320 819h47M471 820h48M1179 820h47M1320 820h47M471 821h48M1179 821h47M1320 821h47M471 822h48M1179 822h47M1320 822h47M471 823h48M1179 823h47M1320 823h47M471 824h48M1179 824h47M1320 824h47M471 825h48M1179 825h47M1320 825h47M471 826h48M1179 826h47M1320 826h47M471 827h48M1179 827h47M1320 827h47M471 828h48M1179 828h47M1320 828h47M471 829h48M1179 829h47M1320 829h47M471 830h48M1179 830h47M1320 830h47M471 831h48M1179 831h47M1320 831h47M471 832h48M1179 832h47M1320 832h47M471 833h48M1179 833h47M1320 833h47M471 834h48M1179 834h47M1320 834h47M471 835h48M1179 835h47M1320 835h47M471 836h48M1179 836h47M1320 836h47M471 837h48M1179 837h47M1320 837h47M471 838h48M1179 838h47M1320 838h47M471 839h48M1179 839h47M1320 839h47M471 840h48M1179 840h47M1320 840h47M471 841h48M1179 841h47M1320 841h47M471 842h48M1179 842h47M1320 842h47M471 843h48M1179 843h47M1320 843h47M471 844h48M1179 844h47M1320 844h47M471 845h48M1179 845h47M1320 845h47M471 846h48M1179 846h47M1320 846h47M471 847h48M1179 847h47M1320 847h47M613 848h47M943 848h47M1179 848h47M1367 848h47M613 849h47M943 849h47M1179 849h47M1367 849h47M613 850h47M943 850h47M1179 850h47M1367 850h47M613 851h47M943 851h47M1179 851h47M1367 851h47M613 852h47M943 852h47M1179 852h47M1367 852h47M613 853h47M943 853h47M1179 853h47M1367 853h47M613 854h47M943 854h47M1179 854h47M1367 854h47M613 855h47M943 855h47M1179 855h47M1367 855h47M613 856h47M943 856h47M1179 856h47M1367 856h47M613 857h47M943 857h47M1179 857h47M1367 857h47M613 858h47M943 858h47M1179 858h47M1367 858h47M613 859h47M943 859h47M1179 859h47M1367 859h47M613 860h47M943 860h47M1179 860h47M1367 860h47M613 861h47M943 861h47M1179 861h47M1367 861h47M613 862h47M943 862h47M1179 862h47M1367 862h47M613 863h47M943 863h47M1179 863h47M1367 863h47M613 864h47M943 864h47M1179 864h47M1367 864h47M613 865h47M943 865h47M1179 865h47M1367 865h47M613 866h47M943 866h47M1179 866h47M1367 866h47M613 867h47M943 867h47M1179 867h47M1367 867h47M613 868h47M943 868h47M1179 868h47M1367 868h47M613 869h47M943 869h47M1179 869h47M1367 869h47M613 870h47M943 870h47M1179 870h47M1367 870h47M613 871h47M943 871h47M1179 871h47M1367 871h47M613 872h47M943 872h47M1179 872h47M1367 872h47M613 873h47M943 873h47M1179 873h47M1367 873h47M613 874h47M943 874h47M1179 874h47M1367 874h47M613 875h47M943 875h47M1179 875h47M1367 875h47M613 876h47M943 876h47M1179 876h47M1367 876h47M613 877h47M943 877h47M1179 877h47M1367 877h47M613 878h47M943 878h47M1179 878h47M1367 878h47M613 879h47M943 879h47M1179 879h47M1367 879h47M613 880h47M943 880h47M1179 880h47M1367 880h47M613 881h47M943 881h47M1179 881h47M1367 881h47M613 882h47M943 882h47M1179 882h47M1367 882h47M613 883h47M943 883h47M1179 883h47M1367 883h47M613 884h47M943 884h47M1179 884h47M1367 884h47M613 885h47M943 885h47M1179 885h47M1367 885h47M613 886h47M943 886h47M1179 886h47M1367 886h47M613 887h47M943 887h47M1179 887h47M1367 887h47M613 888h47M943 888h47M1179 888h47M1367 888h47M613 889h47M943 889h47M1179 889h47M1367 889h47M613 890h47M943 890h47M1179 890h47M1367 890h47M613 891h47M943 891h47M1179 891h47M1367 891h47M613 892h47M943 892h47M1179 892h47M1367 892h47M613 893h47M943 893h47M1179 893h47M1367 893h47M613 894h47M943 894h47M1179 894h47M1367 894h47M566 895h47M1131 895h95M1367 895h47M566 896h47M1131 896h95M1367 896h47M566 897h47M1131 897h95M1367 897h47M566 898h47M1131 898h95M1367 898h47M566 899h47M1131 899h95M1367 899h47M566 900h47M1131 900h95M1367 900h47M566 901h47M1131 901h95M1367 901h47M566 902h47M1131 902h95M1367 902h47M566 903h47M1131 903h95M1367 903h47M566 904h47M1131 904h95M1367 904h47M566 905h47M1131 905h95M1367 905h47M566 906h47M1131 906h95M1367 906h47M566 907h47M1131 907h95M1367 907h47M566 908h47M1131 908h95M1367 908h47M566 909h47M1131 909h95M1367 909h47M566 910h47M1131 910h95M1367 910h47M566 911h47M1131 911h95M1367 911h47M566 912h47M1131 912h95M1367 912h47M566 913h47M1131 913h95M1367 913h47M566 914h47M1131 914h95M1367 914h47M566 915h47M1131 915h95M1367 915h47M566 916h47M1131 916h95M1367 916h47M566 917h47M1131 917h95M1367 917h47M566 918h47M1131 918h95M1367 918h47M566 919h47M1131 919h95M1367 919h47M566 920h47M1131 920h95M1367 920h47M566 921h47M1131 921h95M1367 921h47M566 922h47M1131 922h95M1367 922h47M566 923h47M1131 923h95M1367 923h47M566 924h47M1131 924h95M1367 924h47M566 925h47M1131 925h95M1367 925h47M566 926h47M1131 926h95M1367 926h47M566 927h47M1131 927h95M1367 927h47M566 928h47M1131 928h95M1367 928h47M566 929h47M1131 929h95M1367 929h47M566 930h47M1131 930h95M1367 930h47M566 931h47M1131 931h95M1367 931h47M566 932h47M1131 932h95M1367 932h47M566 933h47M1131 933h95M1367 933h47M566 934h47M1131 934h95M1367 934h47M566 935h47M1131 935h95M1367 935h47M566 936h47M1131 936h95M1367 936h47M566 937h47M1131 937h95M1367 937h47M566 938h47M1131 938h95M1367 938h47M566 939h47M1131 939h95M1367 939h47M566 940h47M1131 940h95M1367 940h47M566 941h47M1131 941h95M1367 941h47M566 942h47M1131 942h95M1367 942h47M707 943h47M849 943h47M707 944h47M849 944h47M707 945h47M849 945h47M707 946h47M849 946h47M707 947h47M849 947h47M707 948h47M849 948h47M707 949h47M849 949h47M707 950h47M849 950h47M707 951h47M849 951h47M707 952h47M849 952h47M707 953h47M849 953h47M707 954h47M849 954h47M707 955h47M849 955h47M707 956h47M849 956h47M707 957h47M849 957h47M707 958h47M849 958h47M707 959h47M849 959h47M707 960h47M849 960h47M707 961h47M849 961h47M707 962h47M849 962h47M707 963h47M849 963h47M707 964h47M849 964h47M707 965h47M849 965h47M707 966h47M849 966h47M707 967h47M849 967h47M707 968h47M849 968h47M707 969h47M849 969h47M707 970h47M849 970h47M707 971h47M849 971h47M707 972h47M849 972h47M707 973h47M849 973h47M707 974h47M849 974h47M707 975h47M849 975h47M707 976h47M849 976h47M707 977h47M849 977h47M707 978h47M849 978h47M707 979h47M849 979h47M707 980h47M849 980h47M707 981h47M849 981h47M707 982h47M849 982h47M707 983h47M849 983h47M707 984h47M849 984h47M707 985h47M849 985h47M707 986h47M849 986h47M707 987h47M849 987h47M707 988h47M849 988h47M707 989h47M849 989h47M660 1320h47M1084 1320h47M660 1321h47M1084 1321h47M660 1322h47M1084 1322h47M660 1323h47M1084 1323h47M660 1324h47M1084 1324h47M660 1325h47M1084 1325h47M660 1326h47M1084 1326h47M660 1327h47M1084 1327h47M660 1328h47M1084 1328h47M660 1329h47M1084 1329h47M660 1330h47M1084 1330h47M660 1331h47M1084 1331h47M660 1332h47M1084 1332h47M660 1333h47M1084 1333h47M660 1334h47M1084 1334h47M660 1335h47M1084 1335h47M660 1336h47M1084 1336h47M660 1337h47M1084 1337h47M660 1338h47M1084 1338h47M660 1339h47M1084 1339h47M660 1340h47M1084 1340h47M660 1341h47M1084 1341h47M660 1342h47M1084 1342h47M660 1343h47M1084 1343h47M660 1344h47M1084 1344h47M660 1345h47M1084 1345h47M660 1346h47M1084 1346h47M660 1347h47M1084 1347h47M660 1348h47M1084 1348h47M660 1349h47M1084 1349h47M660 1350h47M1084 1350h47M660 1351h47M1084 1351h47M660 1352h47M1084 1352h47M660 1353h47M1084 1353h47M660 1354h47M1084 1354h47M660 1355h47M1084 1355h47M660 1356h47M1084 1356h47M660 1357h47M1084 1357h47M660 1358h47M1084 1358h47M660 1359h47M1084 1359h47M660 1360h47M1084 1360h47M660 1361h47M1084 1361h47M660 1362h47M1084 1362h47M660 1363h47M1084 1363h47M660 1364h47M1084 1364h47M660 1365h47M1084 1365h47M660 1366h47M1084 1366h47M660 1367h94M1084 1367h189M660 1368h94M1084 1368h189M660 1369h94M1084 1369h189M660 1370h94M1084 1370h189M660 1371h94M1084 1371h189M660 1372h94M1084 1372h189M660 1373h94M1084 1373h189M660 1374h94M1084 1374h189M660 1375h94M1084 1375h189M660 1376h94M1084 1376h189M660 1377h94M1084 1377h189M660 1378h94M1084 1378h189M660 1379h94M1084 1379h189M660 1380h94M1084 1380h189M660 1381h94M1084 1381h189M660 1382h94M1084 1382h189M660 1383h94M1084 1383h189M660 1384h94M1084 1384h189M660 1385h94M1084 1385h189M660 1386h94M1084 1386h189M660 1387h94M1084 1387h189M660 1388h94M1084 1388h189M660 1389h94M1084 1389h189M660 1390h94M1084 1390h189M660 1391h94M1084 1391h189M660 1392h94M1084 1392h189M660 1393h94M1084 1393h189M660 1394h94M1084 1394h189M660 1395h94M1084 1395h189M660 1396h94M1084 1396h189M660 1397h94M1084 1397h189M660 1398h94M1084 1398h189M660 1399h94M1084 1399h189M660 1400h94M1084 1400h189M660 1401h94M1084 1401h189M660 1402h94M1084 1402h189M660 1403h94M1084 1403h189M660 1404h94M1084 1404h189M660 1405h94M1084 1405h189M660 1406h94M1084 1406h189M660 1407h94M1084 1407h189M660 1408h94M1084 1408h189M660 1409h94M1084 1409h189M660 1410h94M1084 1410h189M660 1411h94M1084 1411h189M660 1412h94M1084 1412h189M660 1413h94M1084 1413h189" />
<path stroke="#7d5d5b" d="M1179 471h47M1273 471h47M1179 472h47M1273 472h47M1179 473h47M1273 473h47M1179 474h47M1273 474h47M1179 475h47M1273 475h47M1179 476h47M1273 476h47M1179 477h47M1273 477h47M1179 478h47M1273 478h47M1179 479h47M1273 479h47M1179 480h47M1273 480h47M1179 481h47M1273 481h47M1179 482h47M1273 482h47M1179 483h47M1273 483h47M1179 484h47M1273 484h47M1179 485h47M1273 485h47M1179 486h47M1273 486h47M1179 487h47M1273 487h47M1179 488h47M1273 488h47M1179 489h47M1273 489h47M1179 490h47M1273 490h47M1179 491h47M1273 491h47M1179 492h47M1273 492h47M1179 493h47M1273 493h47M1179 494h47M1273 494h47M1179 495h47M1273 495h47M1179 496h47M1273 496h47M1179 497h47M1273 497h47M1179 498h47M1273 498h47M1179 499h47M1273 499h47M1179 500h47M1273 500h47M1179 501h47M1273 501h47M1179 502h47M1273 502h47M1179 503h47M1273 503h47M1179 504h47M1273 504h47M1179 505h47M1273 505h47M1179 506h47M1273 506h47M1179 507h47M1273 507h47M1179 508h47M1273 508h47M1179 509h47M1273 509h47M1179 510h47M1273 510h47M1179 511h47M1273 511h47M1179 512h47M1273 512h47M1179 513h47M1273 513h47M1179 514h47M1273 514h47M1179 515h47M1273 515h47M1179 516h47M1273 516h47M1179 517h47M1273 517h47M1226 518h47M1320 518h47M1226 519h47M1320 519h47M1226 520h47M1320 520h47M1226 521h47M1320 521h47M1226 522h47M1320 522h47M1226 523h47M1320 523h47M1226 524h47M1320 524h47M1226 525h47M1320 525h47M1226 526h47M1320 526h47M1226 527h47M1320 527h47M1226 528h47M1320 528h47M1226 529h47M1320 529h47M1226 530h47M1320 530h47M1226 531h47M1320 531h47M1226 532h47M1320 532h47M1226 533h47M1320 533h47M1226 534h47M1320 534h47M1226 535h47M1320 535h47M1226 536h47M1320 536h47M1226 537h47M1320 537h47M1226 538h47M1320 538h47M1226 539h47M1320 539h47M1226 540h47M1320 540h47M1226 541h47M1320 541h47M1226 542h47M1320 542h47M1226 543h47M1320 543h47M1226 544h47M1320 544h47M1226 545h47M1320 545h47M1226 546h47M1320 546h47M1226 547h47M1320 547h47M1226 548h47M1320 548h47M1226 549h47M1320 549h47M1226 550h47M1320 550h47M1226 551h47M1320 551h47M1226 552h47M1320 552h47M1226 553h47M1320 553h47M1226 554h47M1320 554h47M1226 555h47M1320 555h47M1226 556h47M1320 556h47M1226 557h47M1320 557h47M1226 558h47M1320 558h47M1226 559h47M1320 559h47M1226 560h47M1320 560h47M1226 561h47M1320 561h47M1226 562h47M1320 562h47M1226 563h47M1320 563h47M1226 564h47M1320 564h47M1226 565h47M1320 565h47M1273 566h47M1273 567h47M1273 568h47M1273 569h47M1273 570h47M1273 571h47M1273 572h47M1273 573h47M1273 574h47M1273 575h47M1273 576h47M1273 577h47M1273 578h47M1273 579h47M1273 580h47M1273 581h47M1273 582h47M1273 583h47M1273 584h47M1273 585h47M1273 586h47M1273 587h47M1273 588h47M1273 589h47M1273 590h47M1273 591h47M1273 592h47M1273 593h47M1273 594h47M1273 595h47M1273 596h47M1273 597h47M1273 598h47M1273 599h47M1273 600h47M1273 601h47M1273 602h47M1273 603h47M1273 604h47M1273 605h47M1273 606h47M1273 607h47M1273 608h47M1273 609h47M1273 610h47M1273 611h47M1273 612h47M1320 613h47M1320 614h47M1320 615h47M1320 616h47M1320 617h47M1320 618h47M1320 619h47M1320 620h47M1320 621h47M1320 622h47M1320 623h47M1320 624h47M1320 625h47M1320 626h47M1320 627h47M1320 628h47M1320 629h47M1320 630h47M1320 631h47M1320 632h47M1320 633h47M1320 634h47M1320 635h47M1320 636h47M1320 637h47M1320 638h47M1320 639h47M1320 640h47M1320 641h47M1320 642h47M1320 643h47M1320 644h47M1320 645h47M1320 646h47M1320 647h47M1320 648h47M1320 649h47M1320 650h47M1320 651h47M1320 652h47M1320 653h47M1320 654h47M1320 655h47M1320 656h47M1320 657h47M1320 658h47M1320 659h47M1273 660h47M1273 661h47M1273 662h47M1273 663h47M1273 664h47M1273 665h47M1273 666h47M1273 667h47M1273 668h47M1273 669h47M1273 670h47M1273 671h47M1273 672h47M1273 673h47M1273 674h47M1273 675h47M1273 676h47M1273 677h47M1273 678h47M1273 679h47M1273 680h47M1273 681h47M1273 682h47M1273 683h47M1273 684h47M1273 685h47M1273 686h47M1273 687h47M1273 688h47M1273 689h47M1273 690h47M1273 691h47M1273 692h47M1273 693h47M1273 694h47M1273 695h47M1273 696h47M1273 697h47M1273 698h47M1273 699h47M1273 700h47M1273 701h47M1273 702h47M1273 703h47M1273 704h47M1273 705h47M1273 706h47M1320 707h47M1320 708h47M1320 709h47M1320 710h47M1320 711h47M1320 712h47M1320 713h47M1320 714h47M1320 715h47M1320 716h47M1320 717h47M1320 718h47M1320 719h47M1320 720h47M1320 721h47M1320 722h47M1320 723h47M1320 724h47M1320 725h47M1320 726h47M1320 727h47M1320 728h47M1320 729h47M1320 730h47M1320 731h47M1320 732h47M1320 733h47M1320 734h47M1320 735h47M1320 736h47M1320 737h47M1320 738h47M1320 739h47M1320 740h47M1320 741h47M1320 742h47M1320 743h47M1320 744h47M1320 745h47M1320 746h47M1320 747h47M1320 748h47M1320 749h47M1320 750h47M1320 751h47M1320 752h47M1320 753h47" />
<path stroke="#7000fa" d="M1226 471h47M1320 471h47M1226 472h47M1320 472h47M1226 473h47M1320 473h47M1226 474h47M1320 474h47M1226 475h47M1320 475h47M1226 476h47M1320 476h47M1226 477h47M1320 477h47M1226 478h47M1320 478h47M1226 479h47M1320 479h47M1226 480h47M1320 480h47M1226 481h47M1320 481h47M1226 482h47M1320 482h47M1226 483h47M1320 483h47M1226 484h47M1320 484h47M1226 485h47M1320 485h47M1226 486h47M1320 486h47M1226 487h47M1320 487h47M1226 488h47M1320 488h47M1226 489h47M1320 489h47M1226 490h47M1320 490h47M1226 491h47M1320 491h47M1226 492h47M1320 492h47M1226 493h47M1320 493h47M1226 494h47M1320 494h47M1226 495h47M1320 495h47M1226 496h47M1320 496h47M1226 497h47M1320 497h47M1226 498h47M1320 498h47M1226 499h47M1320 499h47M1226 500h47M1320 500h47M1226 501h47M1320 501h47M1226 502h47M1320 502h47M1226 503h47M1320 503h47M1226 504h47M1320 504h47M1226 505h47M1320 505h47M1226 506h47M1320 506h47M1226 507h47M1320 507h47M1226 508h47M1320 508h47M1226 509h47M1320 509h47M1226 510h47M1320 510h47M1226 511h47M1320 511h47M1226 512h47M1320 512h47M1226 513h47M1320 513h47M1226 514h47M1320 514h47M1226 515h47M1320 515h47M1226 516h47M1320 516h47M1226 517h47M1320 517h47M1179 518h47M1273 518h47M1179 519h47M1273 519h47M1179 520h47M1273 520h47M1179 521h47M1273 521h47M1179 522h47M1273 522h47M1179 523h47M1273 523h47M1179 524h47M1273 524h47M1179 525h47M1273 525h47M1179 526h47M1273 526h47M1179 527h47M1273 527h47M1179 528h47M1273 528h47M1179 529h47M1273 529h47M1179 530h47M1273 530h47M1179 531h47M1273 531h47M1179 532h47M1273 532h47M1179 533h47M1273 533h47M1179 534h47M1273 534h47M1179 535h47M1273 535h47M1179 536h47M1273 536h47M1179 537h47M1273 537h47M1179 538h47M1273 538h47M1179 539h47M1273 539h47M1179 540h47M1273 540h47M1179 541h47M1273 541h47M1179 542h47M1273 542h47M1179 543h47M1273 543h47M1179 544h47M1273 544h47M1179 545h47M1273 545h47M1179 546h47M1273 546h47M1179 547h47M1273 547h47M1179 548h47M1273 548h47M1179 549h47M1273 549h47M1179 550h47M1273 550h47M1179 551h47M1273 551h47M1179 552h47M1273 552h47M1179 553h47M1273 553h47M1179 554h47M1273 554h47M1179 555h47M1273 555h47M1179 556h47M1273 556h47M1179 557h47M1273 557h47M1179 558h47M1273 558h47M1179 559h47M1273 559h47M1179 560h47M1273 560h47M1179 561h47M1273 561h47M1179 562h47M1273 562h47M1179 563h47M1273 563h47M1179 564h47M1273 564h47M1179 565h47M1273 565h47M1226 566h47M1320 566h47M1226 567h47M1320 567h47M1226 568h47M1320 568h47M1226 569h47M1320 569h47M1226 570h47M1320 570h47M1226 571h47M1320 571h47M1226 572h47M1320 572h47M1226 573h47M1320 573h47M1226 574h47M1320 574h47M1226 575h47M1320 575h47M1226 576h47M1320 576h47M1226 577h47M1320 577h47M1226 578h47M1320 578h47M1226 579h47M1320 579h47M1226 580h47M1320 580h47M1226 581h47M1320 581h47M1226 582h47M1320 582h47M1226 583h47M1320 583h47M1226 584h47M1320 584h47M1226 585h47M1320 585h47M1226 586h47M1320 586h47M1226 587h47M1320 587h47M1226 588h47M1320 588h47M1226 589h47M1320 589h47M1226 590h47M1320 590h47M1226 591h47M1320 591h47M1226 592h47M1320 592h47M1226 593h47M1320 593h47M1226 594h47M1320 594h47M1226 595h47M1320 595h47M1226 596h47M1320 596h47M1226 597h47M1320 597h47M1226 598h47M1320 598h47M1226 599h47M1320 599h47M1226 600h47M1320 600h47M1226 601h47M1320 601h47M1226 602h47M1320 602h47M1226 603h47M1320 603h47M1226 604h47M1320 604h47M1226 605h47M1320 605h47M1226 606h47M1320 606h47M1226 607h47M1320 607h47M1226 608h47M1320 608h47M1226 609h47M1320 609h47M1226 610h47M1320 610h47M1226 611h47M1320 611h47M1226 612h47M1320 612h47M1273 613h47M1273 614h47M1273 615h47M1273 616h47M1273 617h47M1273 618h47M1273 619h47M1273 620h47M1273 621h47M1273 622h47M1273 623h47M1273 624h47M1273 625h47M1273 626h47M1273 627h47M1273 628h47M1273 629h47M1273 630h47M1273 631h47M1273 632h47M1273 633h47M1273 634h47M1273 635h47M1273 636h47M1273 637h47M1273 638h47M1273 639h47M1273 640h47M1273 641h47M1273 642h47M1273 643h47M1273 644h47M1273 645h47M1273 646h47M1273 647h47M1273 648h47M1273 649h47M1273 650h47M1273 651h47M1273 652h47M1273 653h47M1273 654h47M1273 655h47M1273 656h47M1273 657h47M1273 658h47M1273 659h47M1320 660h47M1320 661h47M1320 662h47M1320 663h47M1320 664h47M1320 665h47M1320 666h47M1320 667h47M1320 668h47M1320 669h47M1320 670h47M1320 671h47M1320 672h47M1320 673h47M1320 674h47M1320 675h47M1320 676h47M1320 677h47M1320 678h47M1320 679h47M1320 680h47M1320 681h47M1320 682h47M1320 683h47M1320 684h47M1320 685h47M1320 686h47M1320 687h47M1320 688h47M1320 689h47M1320 690h47M1320 691h47M1320 692h47M1320 693h47M1320 694h47M1320 695h47M1320 696h47M1320 697h47M1320 698h47M1320 699h47M1320 700h47M1320 701h47M1320 702h47M1320 703h47M1320 704h47M1320 705h47M1320 706h47" />

<path stroke="#7000fa" d="M660 1084h566M660 1085h566M660 1086h566M660 1087h566M660 1088h566M660 1089h566M660 1090h566M660 1091h566M660 1092h566M660 1093h566M660 1094h566M660 1095h566M660 1096h566M660 1097h566M660 1098h566M660 1099h566M660 1100h566M660 1101h566M660 1102h566M660 1103h566M660 1104h566M660 1105h566M660 1106h566M660 1107h566M660 1108h566M660 1109h566M660 1110h566M660 1111h566M660 1112h566M660 1113h566M660 1114h566M660 1115h566M660 1116h566M660 1117h566M660 1118h566M660 1119h566M660 1120h566M660 1121h566M660 1122h566M660 1123h566M660 1124h566M660 1125h566M660 1126h566M660 1127h566M660 1128h566M660 1129h566M660 1130h566M613 1131h660M613 1132h660M613 1133h660M613 1134h660M613 1135h660M613 1136h660M613 1137h660M613 1138h660M613 1139h660M613 1140h660M613 1141h660M613 1142h660M613 1143h660M613 1144h660M613 1145h660M613 1146h660M613 1147h660M613 1148h660M613 1149h660M613 1150h660M613 1151h660M613 1152h660M613 1153h660M613 1154h660M613 1155h660M613 1156h660M613 1157h660M613 1158h660M613 1159h660M613 1160h660M613 1161h660M613 1162h660M613 1163h660M613 1164h660M613 1165h660M613 1166h660M613 1167h660M613 1168h660M613 1169h660M613 1170h660M613 1171h660M613 1172h660M613 1173h660M613 1174h660M613 1175h660M613 1176h660M613 1177h660M707 1178h377M707 1179h377M707 1180h377M707 1181h377M707 1182h377M707 1183h377M707 1184h377M707 1185h377M707 1186h377M707 1187h377M707 1188h377M707 1189h377M707 1190h377M707 1191h377M707 1192h377M707 1193h377M707 1194h377M707 1195h377M707 1196h377M707 1197h377M707 1198h377M707 1199h377M707 1200h377M707 1201h377M707 1202h377M707 1203h377M707 1204h377M707 1205h377M707 1206h377M707 1207h377M707 1208h377M707 1209h377M707 1210h377M707 1211h377M707 1212h377M707 1213h377M707 1214h377M707 1215h377M707 1216h377M707 1217h377M707 1218h377M707 1219h377M707 1220h377M707 1221h377M707 1222h377M707 1223h377M707 1224h377M707 1225h377M707 1226h377M707 1227h377M707 1228h377M707 1229h377M707 1230h377M707 1231h377M707 1232h377M707 1233h377M707 1234h377M707 1235h377M707 1236h377M707 1237h377M707 1238h377M707 1239h377M707 1240h377M707 1241h377M707 1242h377M707 1243h377M707 1244h377M707 1245h377M707 1246h377M707 1247h377M707 1248h377M707 1249h377M707 1250h377M707 1251h377M707 1252h377M707 1253h377M707 1254h377M707 1255h377M707 1256h377M707 1257h377M707 1258h377M707 1259h377M707 1260h377M707 1261h377M707 1262h377M707 1263h377M707 1264h377M707 1265h377M707 1266h377M707 1267h377M707 1268h377M707 1269h377M707 1270h377M707 1271h377M707 1272h377M707 1273h377M707 1274h377M707 1275h377M707 1276h377M707 1277h377M707 1278h377M707 1279h377M707 1280h377M707 1281h377M707 1282h377M707 1283h377M707 1284h377M707 1285h377M707 1286h377M707 1287h377M707 1288h377M707 1289h377M707 1290h377M707 1291h377M707 1292h377M707 1293h377M707 1294h377M707 1295h377M707 1296h377M707 1297h377M707 1298h377M707 1299h377M707 1300h377M707 1301h377M707 1302h377M707 1303h377M707 1304h377M707 1305h377M707 1306h377M707 1307h377M707 1308h377M707 1309h377M707 1310h377M707 1311h377M707 1312h377M707 1313h377M707 1314h377M707 1315h377M707 1316h377M707 1317h377M707 1318h377M707 1319h377M707 1320h330M707 1321h330M707 1322h330M707 1323h330M707 1324h330M707 1325h330M707 1326h330M707 1327h330M707 1328h330M707 1329h330M707 1330h330M707 1331h330M707 1332h330M707 1333h330M707 1334h330M707 1335h330M707 1336h330M707 1337h330M707 1338h330M707 1339h330M707 1340h330M707 1341h330M707 1342h330M707 1343h330M707 1344h330M707 1345h330M707 1346h330M707 1347h330M707 1348h330M707 1349h330M707 1350h330M707 1351h330M707 1352h330M707 1353h330M707 1354h330M707 1355h330M707 1356h330M707 1357h330M707 1358h330M707 1359h330M707 1360h330M707 1361h330M707 1362h330M707 1363h330M707 1364h330M707 1365h330M707 1366h330" />
<path stroke="#00334d" d="M754 1367h95M896 1367h141M754 1368h95M896 1368h141M754 1369h95M896 1369h141M754 1370h95M896 1370h141M754 1371h95M896 1371h141M754 1372h95M896 1372h141M754 1373h95M896 1373h141M754 1374h95M896 1374h141M754 1375h95M896 1375h141M754 1376h95M896 1376h141M754 1377h95M896 1377h141M754 1378h95M896 1378h141M754 1379h95M896 1379h141M754 1380h95M896 1380h141M754 1381h95M896 1381h141M754 1382h95M896 1382h141M754 1383h95M896 1383h141M754 1384h95M896 1384h141M754 1385h95M896 1385h141M754 1386h95M896 1386h141M754 1387h95M896 1387h141M754 1388h95M896 1388h141M754 1389h95M896 1389h141M754 1390h95M896 1390h141M754 1391h95M896 1391h141M754 1392h95M896 1392h141M754 1393h95M896 1393h141M754 1394h95M896 1394h141M754 1395h95M896 1395h141M754 1396h95M896 1396h141M754 1397h95M896 1397h141M754 1398h95M896 1398h141M754 1399h95M896 1399h141M754 1400h95M896 1400h141M754 1401h95M896 1401h141M754 1402h95M896 1402h141M754 1403h95M896 1403h141M754 1404h95M896 1404h141M754 1405h95M896 1405h141M754 1406h95M896 1406h141M754 1407h95M896 1407h141M754 1408h95M896 1408h141M754 1409h95M896 1409h141M754 1410h95M896 1410h141M754 1411h95M896 1411h141M754 1412h95M896 1412h141M754 1413h95M896 1413h141M754 1414h330M754 1415h330M754 1416h330M754 1417h330M754 1418h330M754 1419h330M754 1420h330M754 1421h330M754 1422h330M754 1423h330M754 1424h330M754 1425h330M754 1426h330M754 1427h330M754 1428h330M754 1429h330M754 1430h330M754 1431h330M754 1432h330M754 1433h330M754 1434h330M754 1435h330M754 1436h330M754 1437h330M754 1438h330M754 1439h330M754 1440h330M754 1441h330M754 1442h330M754 1443h330M754 1444h330M754 1445h330M754 1446h330M754 1447h330M754 1448h330M754 1449h330M754 1450h330M754 1451h330M754 1452h330M754 1453h330M754 1454h330M754 1455h330M754 1456h330M754 1457h330M754 1458h330M754 1459h330M754 1460h330M754 1461h330M754 1462h330M754 1463h330M754 1464h330M754 1465h330M754 1466h330M754 1467h330M754 1468h330M754 1469h330M754 1470h330M754 1471h330M754 1472h330M754 1473h330M754 1474h330M754 1475h330M754 1476h330M754 1477h330M754 1478h330M754 1479h330M754 1480h330M754 1481h330M754 1482h330M754 1483h330M754 1484h330M754 1485h330M754 1486h330M754 1487h330M754 1488h330M754 1489h330M754 1490h330M754 1491h330M754 1492h330M754 1493h330M754 1494h330M754 1495h330M754 1496h330M754 1497h330M754 1498h330M754 1499h330M754 1500h330M754 1501h330M754 1502h330M754 1503h330M754 1504h330M754 1505h330M754 1506h330M754 1507h330M754 1508h330M754 1509h330M754 1510h330M754 1511h330M754 1512h330M754 1513h330M754 1514h330M754 1515h330M754 1516h330M754 1517h330M754 1518h330M754 1519h330M754 1520h330M754 1521h330M754 1522h330M754 1523h330M754 1524h330M754 1525h330M754 1526h330M754 1527h330M754 1528h330M754 1529h330M754 1530h330M754 1531h330M754 1532h330M754 1533h330M754 1534h330M754 1535h330M754 1536h330M754 1537h330M754 1538h330M754 1539h330M754 1540h330M754 1541h330M754 1542h330M754 1543h330M754 1544h330M754 1545h330M754 1546h330M754 1547h330M754 1548h330M754 1549h330M754 1550h330M754 1551h330M754 1552h330M754 1553h330M754 1554h330M754 1555h330M754 1556h330M754 1557h330M754 1558h330M754 1559h330M754 1560h330M754 1561h330M754 1562h330M754 1563h330M754 1564h330M754 1565h330M754 1566h330M754 1567h330M754 1568h330M754 1569h330M754 1570h330M754 1571h330M754 1572h330M754 1573h330M754 1574h330M754 1575h330M754 1576h330M754 1577h330M754 1578h330M754 1579h330M754 1580h330M754 1581h330M754 1582h330M754 1583h330M754 1584h330M754 1585h330M754 1586h330M754 1587h330M754 1588h330M754 1589h330M754 1590h330M754 1591h330M754 1592h330M754 1593h330M754 1594h330M754 1595h330M754 1596h330M754 1597h330M754 1598h330M754 1599h330M754 1600h330M754 1601h330" />
<path stroke="#00111a" d="M849 1367h47M849 1368h47M849 1369h47M849 1370h47M849 1371h47M849 1372h47M849 1373h47M849 1374h47M849 1375h47M849 1376h47M849 1377h47M849 1378h47M849 1379h47M849 1380h47M849 1381h47M849 1382h47M849 1383h47M849 1384h47M849 1385h47M849 1386h47M849 1387h47M849 1388h47M849 1389h47M849 1390h47M849 1391h47M849 1392h47M849 1393h47M849 1394h47M849 1395h47M849 1396h47M849 1397h47M849 1398h47M849 1399h47M849 1400h47M849 1401h47M849 1402h47M849 1403h47M849 1404h47M849 1405h47M849 1406h47M849 1407h47M849 1408h47M849 1409h47M849 1410h47M849 1411h47M849 1412h47M849 1413h47" />
<path stroke="#545454" d="M707 1602h377M707 1603h377M707 1604h377M707 1605h377M707 1606h377M707 1607h377M707 1608h377M707 1609h377M707 1610h377M707 1611h377M707 1612h377M707 1613h377M707 1614h377M707 1615h377M707 1616h377M707 1617h377M707 1618h377M707 1619h377M707 1620h377M707 1621h377M707 1622h377M707 1623h377M707 1624h377M707 1625h377M707 1626h377M707 1627h377M707 1628h377M707 1629h377M707 1630h377M707 1631h377M707 1632h377M707 1633h377M707 1634h377M707 1635h377M707 1636h377M707 1637h377M707 1638h377M707 1639h377M707 1640h377M707 1641h377M707 1642h377M707 1643h377M707 1644h377M707 1645h377M707 1646h377M707 1647h377M707 1648h377M707 1649h377" />
</svg>