<svg id="FULL--black" xmlns="http://www.w3.org/2000/svg" width="1326" height="311" viewBox="0 0 1326 311">
  <defs>
    <style>
      .cls-1, .cls-2, .cls-3 {
        fill: #fffbfe;
      }

      .cls-1, .cls-2, .cls-4 {
        fill-rule: evenodd;
      }

      .cls-2, .cls-4 {
        stroke: #fffbfe;
      }

      .cls-2 {
        stroke-width: 14px;
      }

      .cls-4 {
        fill: #fff;
        stroke-width: 4px;
      }
    </style>

  </defs>
    <linearGradient id="gradient" gradientTransform="rotate(105)">
      <stop offset="0" stopColor="#7000fa" />
      <stop offset="1" stopColor="#390df9" />
    </linearGradient>
  <path id="TEXT" class="cls-1" d="M569.7,94.694Q558.742,81,533.664,81a73.677,73.677,0,0,0-25.659,5.045,131.692,131.692,0,0,0-25.947,13.118Q470.814,81,442.561,81q-12.4,0-26.524,5.334a127.336,127.336,0,0,0-26.812,13.982l-7.784-14.7H353.476V225.438h45.263V130.01a152.948,152.948,0,0,1,16.866-8.793A35.006,35.006,0,0,1,429.3,117.9q8.933,0,12.253,5.622t3.315,16.289v85.625h44.975V130.01a161.023,161.023,0,0,1,16.722-8.793,34.012,34.012,0,0,1,13.55-3.315q8.932,0,12.253,5.622t3.315,16.289v85.625h44.975v-91.68Q580.657,108.393,569.7,94.694Zm54.919-4.325a63.867,63.867,0,0,0-25.8,25.947q-9.231,16.866-9.226,39.353,0,34.313,22.055,53.624t60.4,19.316a107.491,107.491,0,0,0,31.281-4.324A78.976,78.976,0,0,0,727.4,212.753l-12.685-31.425q-19.609,10.96-39.5,10.955-30.562,0-36.9-24.5h89.662v-13.55q0-20.468-7.352-36.9A60.611,60.611,0,0,0,698.57,91.09q-14.7-9.8-36.038-9.8T624.621,90.369Zm52.759,34.6q5.905,6.487,7.64,17.154H637.738q1.149-10.662,7.64-17.154a21.744,21.744,0,0,1,16-6.487Q671.468,118.478,677.38,124.965Zm182.058-7.784A60.9,60.9,0,0,0,835.365,91.09q-15.717-9.223-37.047-9.226-6.919,0-16.577,3.315a79.368,79.368,0,0,0-18.307,9.081l-6.054-8.649H741.811V291.747h27.677V221.113a69.028,69.028,0,0,0,15.136,6.055,53.527,53.527,0,0,0,13.406,2.018q20.757,0,36.614-9.082A62.112,62.112,0,0,0,859.15,194.59q8.649-16.434,8.649-38.056Q867.8,134.046,859.438,117.181Zm-30.848,74.67q-10.961,13.7-30.272,13.694-16.724,0-28.83-9.514V115.6q11.818-10.087,28.83-10.09,19.6,0,30.416,14.126t10.811,37.191Q839.545,178.161,828.59,191.851Zm128.146-76.112q6.2,9.082,6.2,26.092H929.78q-23.352,0-37.335,11.388t-13.982,31.857q0,19.893,12.4,31.857T927.186,228.9A54.672,54.672,0,0,0,949.1,224a71.156,71.156,0,0,0,19.027-11.82l3.46,13.262H990.9V130.587a43.9,43.9,0,0,0-7.352-24.506,50.854,50.854,0,0,0-20.325-17.73,63.566,63.566,0,0,0-28.83-6.487q-9.8,0-24.938,3.6t-22.631,8.793l7.784,21.911q21.332-9.514,40.362-9.514Q950.539,106.658,956.736,115.739Zm6.487,44.543v28.253a61.253,61.253,0,0,1-17.01,13.406,41.339,41.339,0,0,1-19.6,5.046q-11.244,0-17.3-6.487a21.835,21.835,0,0,1-6.054-15.424,24.449,24.449,0,0,1,6.919-17.587q6.919-7.2,19.028-7.207h34.019Zm168.947-74.67h-15.86l-5.48,9.8a64.624,64.624,0,0,0-19.03-10.09q-10.365-3.46-17.87-3.46-20.76,0-36.61,9.082a62.074,62.074,0,0,0-24.51,25.514q-8.655,16.434-8.65,38.056,0,22.487,8.36,39.353a60.845,60.845,0,0,0,24.07,26.091q15.72,9.224,37.05,9.226a49.881,49.881,0,0,0,14.42-2.595,75.506,75.506,0,0,0,16.14-7.207v18.163q0,15.278-10.95,23.5t-28.83,8.217q-11.25,0-18.6-2.451t-21.77-8.793l-8.36,19.893q8.94,6.054,24.22,9.946t25.37,3.892q21.045,0,36.04-6.919t22.92-19.172a50.141,50.141,0,0,0,7.93-27.821V85.612Zm-41.81,117.05a44.755,44.755,0,0,1-16.72,2.883q-19.605,0-30.41-14.127t-10.82-37.19q0-21.333,10.96-35.029t30.27-13.694a49.636,49.636,0,0,1,16.58,2.594,43.3,43.3,0,0,1,13.98,8.361v77.265A45.9,45.9,0,0,1,1090.36,202.662ZM1179.59,91.09a60.351,60.351,0,0,0-23.21,25.947q-8.07,16.724-8.07,38.344,0,33.73,19.6,53.624t56.22,19.892q25.365,0,50.74-15.279l-8.65-20.182a226.081,226.081,0,0,1-22.92,9.659,60.575,60.575,0,0,1-19.17,2.738q-22.485,0-33.87-11.82t-13.12-32.29h99.17v-7.5q0-31.712-15.42-52.039T1215.2,81.864Q1194.725,81.864,1179.59,91.09Zm69.91,51.894h-71.78q2.01-17.582,11.38-27.533t25.23-9.946q29.685,0,35.17,37.479h0Z"/>
  <g id="face">
    <path fill="url(#gradient)" id="body" class="cls-2" d="M224.947,20.47l9.025,0.905c5.285,2.666,4.314,7.238,1.649,11.771C186.869,45.234,139.048,47.5,106.031,75.7c-46.548,39.764-42.016,131.65,3.4,168.409,40.107,32.464,128.709,23.229,163.25-6.338,13.584-11.628,20.782-31.885,27.857-50.7,6.6-17.545,17.232-60.511,6.5-84.2-15.82-34.942-88.218-27.914-127.171-18.109C167.849,87.782,150.7,99.039,141.32,93.81L140.5,91.093q0.408-2.263.817-4.527C156.868,64.65,262.1,55.93,292.252,70.269c59.2,28.151,22.943,150.39-10.54,178.368-25.535,21.336-70.776,37.239-115.653,28.069-16.932-3.46-32.986-3.433-46.769-9.96C74.643,245.6,46.93,183.394,65.86,114.634c14.147-51.384,59.373-71.883,108.23-85.11Z"/>
    <g id="face-2" data-name="face">
      <path id="eye-left" class="cls-1" d="M153.753,142.862a11.16,11.16,0,1,1-11.16,11.16A11.16,11.16,0,0,1,153.753,142.862Z"/>
      <circle id="eye-right" class="cls-3" cx="252.484" cy="123.297" r="11.047"/>
      <path id="mouth" class="cls-4" d="M190.917,156.289c-9.119,15.581,25.9,28.682,41.265,9.061,2.053-6.515,3.368-13,1.008-19.226q-1.273-1.842-2.549-3.683l-3.871-.538-2.851,3.235c0.469,6.552,1.206,11.6-3.352,18.6C208.547,168.318,203.16,159.406,190.917,156.289Z"/>
    </g>
  </g>
</svg>
