<svg id="FULL--black" xmlns="http://www.w3.org/2000/svg" width="318" height="311" viewBox="0 0 318 311">
  <defs>
    <style>
      .cls-1, .cls-2, .cls-3 {
        fill: #fffbfe;
      }

      .cls-1, .cls-4 {
        stroke: #fffbfe;
      }

      .cls-1 {
        stroke-width: 14px;
      }

      .cls-1, .cls-2, .cls-4 {
        fill-rule: evenodd;
      }

      .cls-4 {
        fill: #fff;
        stroke-width: 4px;
      }
    </style>
  </defs>
  <g id="face">
    <path id="body" class="cls-1" d="M189.947,20.47l9.025,0.905c5.285,2.666,4.314,7.238,1.649,11.771C151.869,45.234,104.048,47.5,71.032,75.7c-46.549,39.764-42.016,131.65,3.4,168.409,40.107,32.464,128.709,23.229,163.25-6.338,13.584-11.628,20.782-31.885,27.857-50.7,6.6-17.545,17.232-60.511,6.5-84.2-15.82-34.942-88.218-27.914-127.171-18.109C132.849,87.782,115.7,99.039,106.32,93.81L105.5,91.093q0.408-2.263.817-4.527C121.868,64.65,227.1,55.93,257.252,70.269c59.2,28.151,22.943,150.39-10.54,178.368-25.535,21.336-70.776,37.239-115.653,28.069-16.932-3.46-32.986-3.433-46.769-9.96C39.643,245.6,11.93,183.394,30.86,114.634,45.007,63.25,90.233,42.751,139.09,29.524Z"/>
    <g id="face-2" data-name="face">
      <path id="eye-left" class="cls-2" d="M118.753,142.862a11.16,11.16,0,1,1-11.16,11.16A11.16,11.16,0,0,1,118.753,142.862Z"/>
      <circle id="eye-right" class="cls-3" cx="217.484" cy="123.297" r="11.047"/>
      <path id="mouth" class="cls-4" d="M155.917,156.289c-9.119,15.581,25.9,28.682,41.265,9.061,2.053-6.515,3.368-13,1.008-19.226q-1.273-1.842-2.549-3.683l-3.871-.538-2.851,3.235c0.469,6.552,1.206,11.6-3.352,18.6C173.547,168.318,168.16,159.406,155.917,156.289Z"/>
    </g>
  </g>
</svg>
