<svg id="Kevin" xmlns="http://www.w3.org/2000/svg" width="500" height="500" viewBox="0 0 500 500">
  <defs>
    <style>
      .cls-1 {
        fill: #fff;
        stroke-width: 1px;
      }

      .cls-1, .cls-2 {
        stroke: #020202;
      }

      .cls-1, .cls-2, .cls-3 {
        fill-rule: evenodd;
      }

      .cls-2 {
        fill: none;
        stroke-width: 24.94px;
      }
    </style>
  </defs>
  <g id="Body">
    <path id="body_inner" data-name="body inner" class="cls-1" d="M310.708,30.64l12.8,1.4,9.952,9.792c0.324,11.611-1.662,15.963-5.687,22.381-33.234,7.563-65,22.93-82.466,46.161,71.038-14.488,177.5-14.283,210.431,30.774C485.8,182.277,480.3,260.361,464.266,311.8c-32.134,103.065-120.164,175.578-260.2,153.87-28.469-4.413-56.516-5.334-79.623-15.387C10,400.5-16.365,185.434,88.9,104.777c34.858-26.708,83.005-47.214,132.231-58.75Z"/>
    <path id="body_outline" data-name="body outline" class="cls-2" d="M310.708,30.64l12.8,1.4,9.952,9.792c0.324,11.611-1.662,15.963-5.687,22.381-33.234,7.563-65,22.93-82.466,46.161,71.038-14.488,177.5-14.283,210.431,30.774C485.8,182.277,480.3,260.361,464.266,311.8c-32.134,103.065-120.164,175.578-260.2,153.87-28.469-4.413-56.516-5.334-79.623-15.387C10,400.5-16.365,185.434,88.9,104.777c34.858-26.708,83.005-47.214,132.231-58.75Z"/>
  </g>
  <g id="Eyes">
    <path id="eye-left" class="cls-3" d="M181.927,239.942c10.632,0,19.25,8.274,19.25,18.48s-8.618,18.48-19.25,18.48-19.25-8.274-19.25-18.48S171.3,239.942,181.927,239.942Z"/>
    <path id="eye-right" class="cls-3" d="M362.107,182.962c10.632,0,19.25,8.274,19.25,18.48s-8.618,18.48-19.25,18.48-19.25-8.274-19.25-18.48S351.476,182.962,362.107,182.962Z"/>
  </g>
  <path id="Mouth" class="cls-3" d="M250.452,261.705l29.226,13.841s28.752,12.6,29.226-13.841c-0.089-14.343,0-19.992,0-19.992s7.779-13.347,18.458-1.537c3.411,8.1,6.558,18.284,3.077,30.756-2.82,10.409-16.733,39.867-67.682,23.067-6.589-3.425-15.114-11.571-16.92-18.453C246.166,268.623,248.168,264.4,250.452,261.705Z"/>
</svg>
